solid electric_NMOS_IV
	facet normal 0.0 0.0 -1.0
		outer loop
			vertex -9.0 5.5 16.5
			vertex 0.0 9.5 16.5
			vertex 0.0 5.5 16.5
		endloop
	endfacet
	facet normal 0.0 0.0 -1.0
		outer loop
			vertex -9.0 5.5 16.5
			vertex -9.0 9.5 16.5
			vertex 0.0 9.5 16.5
		endloop
	endfacet
	facet normal 0.0 0.0 1.0
		outer loop
			vertex -9.0 5.5 19.15
			vertex 0.0 5.5 19.15
			vertex 0.0 9.5 19.15
		endloop
	endfacet
	facet normal 0.0 0.0 1.0
		outer loop
			vertex -9.0 5.5 19.15
			vertex 0.0 9.5 19.15
			vertex -9.0 9.5 19.15
		endloop
	endfacet
	facet normal 0.0 -1.0 0.0
		outer loop
			vertex -9.0 5.5 16.5
			vertex 0.0 5.5 16.5
			vertex -9.0 5.5 19.15
		endloop
	endfacet
	facet normal 0.0 -1.0 0.0
		outer loop
			vertex -9.0 5.5 19.15
			vertex 0.0 5.5 16.5
			vertex 0.0 5.5 19.15
		endloop
	endfacet
	facet normal 0.0 1.0 0.0
		outer loop
			vertex -9.0 9.5 16.5
			vertex -9.0 9.5 19.15
			vertex 0.0 9.5 16.5
		endloop
	endfacet
	facet normal 0.0 1.0 0.0
		outer loop
			vertex -9.0 9.5 19.15
			vertex 0.0 9.5 19.15
			vertex 0.0 9.5 16.5
		endloop
	endfacet
	facet normal -1.0 0.0 0.0
		outer loop
			vertex -9.0 5.5 16.5
			vertex -9.0 9.5 19.15
			vertex -9.0 9.5 16.5
		endloop
	endfacet
	facet normal -1.0 0.0 0.0
		outer loop
			vertex -9.0 5.5 16.5
			vertex -9.0 5.5 19.15
			vertex -9.0 9.5 19.15
		endloop
	endfacet
	facet normal 1.0 0.0 0.0
		outer loop
			vertex 0.0 5.5 16.5
			vertex 0.0 9.5 16.5
			vertex 0.0 9.5 19.15
		endloop
	endfacet
	facet normal 1.0 0.0 0.0
		outer loop
			vertex 0.0 5.5 16.5
			vertex 0.0 9.5 19.15
			vertex 0.0 5.5 19.15
		endloop
	endfacet
	facet normal 0.0 0.0 -1.0
		outer loop
			vertex -9.5 5.0 9.0
			vertex 0.5 10.0 9.0
			vertex 0.5 5.0 9.0
		endloop
	endfacet
	facet normal 0.0 0.0 -1.0
		outer loop
			vertex -9.5 5.0 9.0
			vertex -9.5 10.0 9.0
			vertex 0.5 10.0 9.0
		endloop
	endfacet
	facet normal 0.0 0.0 1.0
		outer loop
			vertex -9.5 5.0 13.0
			vertex 0.5 5.0 13.0
			vertex 0.5 10.0 13.0
		endloop
	endfacet
	facet normal 0.0 0.0 1.0
		outer loop
			vertex -9.5 5.0 13.0
			vertex 0.5 10.0 13.0
			vertex -9.5 10.0 13.0
		endloop
	endfacet
	facet normal 0.0 -1.0 0.0
		outer loop
			vertex -9.5 5.0 9.0
			vertex 0.5 5.0 9.0
			vertex -9.5 5.0 13.0
		endloop
	endfacet
	facet normal 0.0 -1.0 0.0
		outer loop
			vertex -9.5 5.0 13.0
			vertex 0.5 5.0 9.0
			vertex 0.5 5.0 13.0
		endloop
	endfacet
	facet normal 0.0 1.0 0.0
		outer loop
			vertex -9.5 10.0 9.0
			vertex -9.5 10.0 13.0
			vertex 0.5 10.0 9.0
		endloop
	endfacet
	facet normal 0.0 1.0 0.0
		outer loop
			vertex -9.5 10.0 13.0
			vertex 0.5 10.0 13.0
			vertex 0.5 10.0 9.0
		endloop
	endfacet
	facet normal -1.0 0.0 0.0
		outer loop
			vertex -9.5 5.0 9.0
			vertex -9.5 10.0 13.0
			vertex -9.5 10.0 9.0
		endloop
	endfacet
	facet normal -1.0 0.0 0.0
		outer loop
			vertex -9.5 5.0 9.0
			vertex -9.5 5.0 13.0
			vertex -9.5 10.0 13.0
		endloop
	endfacet
	facet normal 1.0 0.0 0.0
		outer loop
			vertex 0.5 5.0 9.0
			vertex 0.5 10.0 9.0
			vertex 0.5 10.0 13.0
		endloop
	endfacet
	facet normal 1.0 0.0 0.0
		outer loop
			vertex 0.5 5.0 9.0
			vertex 0.5 10.0 13.0
			vertex 0.5 5.0 13.0
		endloop
	endfacet
	facet normal 0.0 0.0 -1.0
		outer loop
			vertex -15.5 -1.0 0.0
			vertex 6.5 16.0 0.0
			vertex 6.5 -1.0 0.0
		endloop
	endfacet
	facet normal 0.0 0.0 -1.0
		outer loop
			vertex -15.5 -1.0 0.0
			vertex -15.5 16.0 0.0
			vertex 6.5 16.0 0.0
		endloop
	endfacet
	facet normal 0.0 0.0 1.0
		outer loop
			vertex -15.5 -1.0 13.0
			vertex 6.5 -1.0 13.0
			vertex 6.5 16.0 13.0
		endloop
	endfacet
	facet normal 0.0 0.0 1.0
		outer loop
			vertex -15.5 -1.0 13.0
			vertex 6.5 16.0 13.0
			vertex -15.5 16.0 13.0
		endloop
	endfacet
	facet normal 0.0 -1.0 0.0
		outer loop
			vertex -15.5 -1.0 0.0
			vertex 6.5 -1.0 0.0
			vertex -15.5 -1.0 13.0
		endloop
	endfacet
	facet normal 0.0 -1.0 0.0
		outer loop
			vertex -15.5 -1.0 13.0
			vertex 6.5 -1.0 0.0
			vertex 6.5 -1.0 13.0
		endloop
	endfacet
	facet normal 0.0 1.0 0.0
		outer loop
			vertex -15.5 16.0 0.0
			vertex -15.5 16.0 13.0
			vertex 6.5 16.0 0.0
		endloop
	endfacet
	facet normal 0.0 1.0 0.0
		outer loop
			vertex -15.5 16.0 13.0
			vertex 6.5 16.0 13.0
			vertex 6.5 16.0 0.0
		endloop
	endfacet
	facet normal -1.0 0.0 0.0
		outer loop
			vertex -15.5 -1.0 0.0
			vertex -15.5 16.0 13.0
			vertex -15.5 16.0 0.0
		endloop
	endfacet
	facet normal -1.0 0.0 0.0
		outer loop
			vertex -15.5 -1.0 0.0
			vertex -15.5 -1.0 13.0
			vertex -15.5 16.0 13.0
		endloop
	endfacet
	facet normal 1.0 0.0 0.0
		outer loop
			vertex 6.5 -1.0 0.0
			vertex 6.5 16.0 0.0
			vertex 6.5 16.0 13.0
		endloop
	endfacet
	facet normal 1.0 0.0 0.0
		outer loop
			vertex 6.5 -1.0 0.0
			vertex 6.5 16.0 13.0
			vertex 6.5 -1.0 13.0
		endloop
	endfacet
	facet normal 0.0 0.0 -1.0
		outer loop
			vertex -11.5 3.0 8.0
			vertex 2.5 12.0 8.0
			vertex 2.5 3.0 8.0
		endloop
	endfacet
	facet normal 0.0 0.0 -1.0
		outer loop
			vertex -11.5 3.0 8.0
			vertex -11.5 12.0 8.0
			vertex 2.5 12.0 8.0
		endloop
	endfacet
	facet normal 0.0 0.0 1.0
		outer loop
			vertex -11.5 3.0 13.0
			vertex 2.5 3.0 13.0
			vertex 2.5 12.0 13.0
		endloop
	endfacet
	facet normal 0.0 0.0 1.0
		outer loop
			vertex -11.5 3.0 13.0
			vertex 2.5 12.0 13.0
			vertex -11.5 12.0 13.0
		endloop
	endfacet
	facet normal 0.0 -1.0 0.0
		outer loop
			vertex -11.5 3.0 8.0
			vertex 2.5 3.0 8.0
			vertex -11.5 3.0 13.0
		endloop
	endfacet
	facet normal 0.0 -1.0 0.0
		outer loop
			vertex -11.5 3.0 13.0
			vertex 2.5 3.0 8.0
			vertex 2.5 3.0 13.0
		endloop
	endfacet
	facet normal 0.0 1.0 0.0
		outer loop
			vertex -11.5 12.0 8.0
			vertex -11.5 12.0 13.0
			vertex 2.5 12.0 8.0
		endloop
	endfacet
	facet normal 0.0 1.0 0.0
		outer loop
			vertex -11.5 12.0 13.0
			vertex 2.5 12.0 13.0
			vertex 2.5 12.0 8.0
		endloop
	endfacet
	facet normal -1.0 0.0 0.0
		outer loop
			vertex -11.5 3.0 8.0
			vertex -11.5 12.0 13.0
			vertex -11.5 12.0 8.0
		endloop
	endfacet
	facet normal -1.0 0.0 0.0
		outer loop
			vertex -11.5 3.0 8.0
			vertex -11.5 3.0 13.0
			vertex -11.5 12.0 13.0
		endloop
	endfacet
	facet normal 1.0 0.0 0.0
		outer loop
			vertex 2.5 3.0 8.0
			vertex 2.5 12.0 8.0
			vertex 2.5 12.0 13.0
		endloop
	endfacet
	facet normal 1.0 0.0 0.0
		outer loop
			vertex 2.5 3.0 8.0
			vertex 2.5 12.0 13.0
			vertex 2.5 3.0 13.0
		endloop
	endfacet
	facet normal 0.0 0.0 -1.0
		outer loop
			vertex -8.0 6.5 13.0
			vertex -6.0 8.5 13.0
			vertex -6.0 6.5 13.0
		endloop
	endfacet
	facet normal 0.0 0.0 -1.0
		outer loop
			vertex -8.0 6.5 13.0
			vertex -8.0 8.5 13.0
			vertex -6.0 8.5 13.0
		endloop
	endfacet
	facet normal 0.0 0.0 1.0
		outer loop
			vertex -8.0 6.5 16.5
			vertex -6.0 6.5 16.5
			vertex -6.0 8.5 16.5
		endloop
	endfacet
	facet normal 0.0 0.0 1.0
		outer loop
			vertex -8.0 6.5 16.5
			vertex -6.0 8.5 16.5
			vertex -8.0 8.5 16.5
		endloop
	endfacet
	facet normal 0.0 -1.0 0.0
		outer loop
			vertex -8.0 6.5 13.0
			vertex -6.0 6.5 13.0
			vertex -8.0 6.5 16.5
		endloop
	endfacet
	facet normal 0.0 -1.0 0.0
		outer loop
			vertex -8.0 6.5 16.5
			vertex -6.0 6.5 13.0
			vertex -6.0 6.5 16.5
		endloop
	endfacet
	facet normal 0.0 1.0 0.0
		outer loop
			vertex -8.0 8.5 13.0
			vertex -8.0 8.5 16.5
			vertex -6.0 8.5 13.0
		endloop
	endfacet
	facet normal 0.0 1.0 0.0
		outer loop
			vertex -8.0 8.5 16.5
			vertex -6.0 8.5 16.5
			vertex -6.0 8.5 13.0
		endloop
	endfacet
	facet normal -1.0 0.0 0.0
		outer loop
			vertex -8.0 6.5 13.0
			vertex -8.0 8.5 16.5
			vertex -8.0 8.5 13.0
		endloop
	endfacet
	facet normal -1.0 0.0 0.0
		outer loop
			vertex -8.0 6.5 13.0
			vertex -8.0 6.5 16.5
			vertex -8.0 8.5 16.5
		endloop
	endfacet
	facet normal 1.0 0.0 0.0
		outer loop
			vertex -6.0 6.5 13.0
			vertex -6.0 8.5 13.0
			vertex -6.0 8.5 16.5
		endloop
	endfacet
	facet normal 1.0 0.0 0.0
		outer loop
			vertex -6.0 6.5 13.0
			vertex -6.0 8.5 16.5
			vertex -6.0 6.5 16.5
		endloop
	endfacet
	facet normal 0.0 0.0 -1.0
		outer loop
			vertex -3.0 6.5 13.0
			vertex -1.0 8.5 13.0
			vertex -1.0 6.5 13.0
		endloop
	endfacet
	facet normal 0.0 0.0 -1.0
		outer loop
			vertex -3.0 6.5 13.0
			vertex -3.0 8.5 13.0
			vertex -1.0 8.5 13.0
		endloop
	endfacet
	facet normal 0.0 0.0 1.0
		outer loop
			vertex -3.0 6.5 16.5
			vertex -1.0 6.5 16.5
			vertex -1.0 8.5 16.5
		endloop
	endfacet
	facet normal 0.0 0.0 1.0
		outer loop
			vertex -3.0 6.5 16.5
			vertex -1.0 8.5 16.5
			vertex -3.0 8.5 16.5
		endloop
	endfacet
	facet normal 0.0 -1.0 0.0
		outer loop
			vertex -3.0 6.5 13.0
			vertex -1.0 6.5 13.0
			vertex -3.0 6.5 16.5
		endloop
	endfacet
	facet normal 0.0 -1.0 0.0
		outer loop
			vertex -3.0 6.5 16.5
			vertex -1.0 6.5 13.0
			vertex -1.0 6.5 16.5
		endloop
	endfacet
	facet normal 0.0 1.0 0.0
		outer loop
			vertex -3.0 8.5 13.0
			vertex -3.0 8.5 16.5
			vertex -1.0 8.5 13.0
		endloop
	endfacet
	facet normal 0.0 1.0 0.0
		outer loop
			vertex -3.0 8.5 16.5
			vertex -1.0 8.5 16.5
			vertex -1.0 8.5 13.0
		endloop
	endfacet
	facet normal -1.0 0.0 0.0
		outer loop
			vertex -3.0 6.5 13.0
			vertex -3.0 8.5 16.5
			vertex -3.0 8.5 13.0
		endloop
	endfacet
	facet normal -1.0 0.0 0.0
		outer loop
			vertex -3.0 6.5 13.0
			vertex -3.0 6.5 16.5
			vertex -3.0 8.5 16.5
		endloop
	endfacet
	facet normal 1.0 0.0 0.0
		outer loop
			vertex -1.0 6.5 13.0
			vertex -1.0 8.5 13.0
			vertex -1.0 8.5 16.5
		endloop
	endfacet
	facet normal 1.0 0.0 0.0
		outer loop
			vertex -1.0 6.5 13.0
			vertex -1.0 8.5 16.5
			vertex -1.0 6.5 16.5
		endloop
	endfacet
	facet normal 0.0 0.0 -1.0
		outer loop
			vertex -9.0 -4.5 16.5
			vertex 0.0 -0.5 16.5
			vertex 0.0 -4.5 16.5
		endloop
	endfacet
	facet normal 0.0 0.0 -1.0
		outer loop
			vertex -9.0 -4.5 16.5
			vertex -9.0 -0.5 16.5
			vertex 0.0 -0.5 16.5
		endloop
	endfacet
	facet normal 0.0 0.0 1.0
		outer loop
			vertex -9.0 -4.5 19.15
			vertex 0.0 -4.5 19.15
			vertex 0.0 -0.5 19.15
		endloop
	endfacet
	facet normal 0.0 0.0 1.0
		outer loop
			vertex -9.0 -4.5 19.15
			vertex 0.0 -0.5 19.15
			vertex -9.0 -0.5 19.15
		endloop
	endfacet
	facet normal 0.0 -1.0 0.0
		outer loop
			vertex -9.0 -4.5 16.5
			vertex 0.0 -4.5 16.5
			vertex -9.0 -4.5 19.15
		endloop
	endfacet
	facet normal 0.0 -1.0 0.0
		outer loop
			vertex -9.0 -4.5 19.15
			vertex 0.0 -4.5 16.5
			vertex 0.0 -4.5 19.15
		endloop
	endfacet
	facet normal 0.0 1.0 0.0
		outer loop
			vertex -9.0 -0.5 16.5
			vertex -9.0 -0.5 19.15
			vertex 0.0 -0.5 16.5
		endloop
	endfacet
	facet normal 0.0 1.0 0.0
		outer loop
			vertex -9.0 -0.5 19.15
			vertex 0.0 -0.5 19.15
			vertex 0.0 -0.5 16.5
		endloop
	endfacet
	facet normal -1.0 0.0 0.0
		outer loop
			vertex -9.0 -4.5 16.5
			vertex -9.0 -0.5 19.15
			vertex -9.0 -0.5 16.5
		endloop
	endfacet
	facet normal -1.0 0.0 0.0
		outer loop
			vertex -9.0 -4.5 16.5
			vertex -9.0 -4.5 19.15
			vertex -9.0 -0.5 19.15
		endloop
	endfacet
	facet normal 1.0 0.0 0.0
		outer loop
			vertex 0.0 -4.5 16.5
			vertex 0.0 -0.5 16.5
			vertex 0.0 -0.5 19.15
		endloop
	endfacet
	facet normal 1.0 0.0 0.0
		outer loop
			vertex 0.0 -4.5 16.5
			vertex 0.0 -0.5 19.15
			vertex 0.0 -4.5 19.15
		endloop
	endfacet
	facet normal 0.0 0.0 -1.0
		outer loop
			vertex -9.5 -5.0 9.0
			vertex 0.5 0.0 9.0
			vertex 0.5 -5.0 9.0
		endloop
	endfacet
	facet normal 0.0 0.0 -1.0
		outer loop
			vertex -9.5 -5.0 9.0
			vertex -9.5 0.0 9.0
			vertex 0.5 0.0 9.0
		endloop
	endfacet
	facet normal 0.0 0.0 1.0
		outer loop
			vertex -9.5 -5.0 13.0
			vertex 0.5 -5.0 13.0
			vertex 0.5 0.0 13.0
		endloop
	endfacet
	facet normal 0.0 0.0 1.0
		outer loop
			vertex -9.5 -5.0 13.0
			vertex 0.5 0.0 13.0
			vertex -9.5 0.0 13.0
		endloop
	endfacet
	facet normal 0.0 -1.0 0.0
		outer loop
			vertex -9.5 -5.0 9.0
			vertex 0.5 -5.0 9.0
			vertex -9.5 -5.0 13.0
		endloop
	endfacet
	facet normal 0.0 -1.0 0.0
		outer loop
			vertex -9.5 -5.0 13.0
			vertex 0.5 -5.0 9.0
			vertex 0.5 -5.0 13.0
		endloop
	endfacet
	facet normal 0.0 1.0 0.0
		outer loop
			vertex -9.5 0.0 9.0
			vertex -9.5 0.0 13.0
			vertex 0.5 0.0 9.0
		endloop
	endfacet
	facet normal 0.0 1.0 0.0
		outer loop
			vertex -9.5 0.0 13.0
			vertex 0.5 0.0 13.0
			vertex 0.5 0.0 9.0
		endloop
	endfacet
	facet normal -1.0 0.0 0.0
		outer loop
			vertex -9.5 -5.0 9.0
			vertex -9.5 0.0 13.0
			vertex -9.5 0.0 9.0
		endloop
	endfacet
	facet normal -1.0 0.0 0.0
		outer loop
			vertex -9.5 -5.0 9.0
			vertex -9.5 -5.0 13.0
			vertex -9.5 0.0 13.0
		endloop
	endfacet
	facet normal 1.0 0.0 0.0
		outer loop
			vertex 0.5 -5.0 9.0
			vertex 0.5 0.0 9.0
			vertex 0.5 0.0 13.0
		endloop
	endfacet
	facet normal 1.0 0.0 0.0
		outer loop
			vertex 0.5 -5.0 9.0
			vertex 0.5 0.0 13.0
			vertex 0.5 -5.0 13.0
		endloop
	endfacet
	facet normal 0.0 0.0 -1.0
		outer loop
			vertex -15.5 -11.0 0.0
			vertex 6.5 6.0 0.0
			vertex 6.5 -11.0 0.0
		endloop
	endfacet
	facet normal 0.0 0.0 -1.0
		outer loop
			vertex -15.5 -11.0 0.0
			vertex -15.5 6.0 0.0
			vertex 6.5 6.0 0.0
		endloop
	endfacet
	facet normal 0.0 0.0 1.0
		outer loop
			vertex -15.5 -11.0 13.0
			vertex 6.5 -11.0 13.0
			vertex 6.5 6.0 13.0
		endloop
	endfacet
	facet normal 0.0 0.0 1.0
		outer loop
			vertex -15.5 -11.0 13.0
			vertex 6.5 6.0 13.0
			vertex -15.5 6.0 13.0
		endloop
	endfacet
	facet normal 0.0 -1.0 0.0
		outer loop
			vertex -15.5 -11.0 0.0
			vertex 6.5 -11.0 0.0
			vertex -15.5 -11.0 13.0
		endloop
	endfacet
	facet normal 0.0 -1.0 0.0
		outer loop
			vertex -15.5 -11.0 13.0
			vertex 6.5 -11.0 0.0
			vertex 6.5 -11.0 13.0
		endloop
	endfacet
	facet normal 0.0 1.0 0.0
		outer loop
			vertex -15.5 6.0 0.0
			vertex -15.5 6.0 13.0
			vertex 6.5 6.0 0.0
		endloop
	endfacet
	facet normal 0.0 1.0 0.0
		outer loop
			vertex -15.5 6.0 13.0
			vertex 6.5 6.0 13.0
			vertex 6.5 6.0 0.0
		endloop
	endfacet
	facet normal -1.0 0.0 0.0
		outer loop
			vertex -15.5 -11.0 0.0
			vertex -15.5 6.0 13.0
			vertex -15.5 6.0 0.0
		endloop
	endfacet
	facet normal -1.0 0.0 0.0
		outer loop
			vertex -15.5 -11.0 0.0
			vertex -15.5 -11.0 13.0
			vertex -15.5 6.0 13.0
		endloop
	endfacet
	facet normal 1.0 0.0 0.0
		outer loop
			vertex 6.5 -11.0 0.0
			vertex 6.5 6.0 0.0
			vertex 6.5 6.0 13.0
		endloop
	endfacet
	facet normal 1.0 0.0 0.0
		outer loop
			vertex 6.5 -11.0 0.0
			vertex 6.5 6.0 13.0
			vertex 6.5 -11.0 13.0
		endloop
	endfacet
	facet normal 0.0 0.0 -1.0
		outer loop
			vertex -11.5 -7.0 8.0
			vertex 2.5 2.0 8.0
			vertex 2.5 -7.0 8.0
		endloop
	endfacet
	facet normal 0.0 0.0 -1.0
		outer loop
			vertex -11.5 -7.0 8.0
			vertex -11.5 2.0 8.0
			vertex 2.5 2.0 8.0
		endloop
	endfacet
	facet normal 0.0 0.0 1.0
		outer loop
			vertex -11.5 -7.0 13.0
			vertex 2.5 -7.0 13.0
			vertex 2.5 2.0 13.0
		endloop
	endfacet
	facet normal 0.0 0.0 1.0
		outer loop
			vertex -11.5 -7.0 13.0
			vertex 2.5 2.0 13.0
			vertex -11.5 2.0 13.0
		endloop
	endfacet
	facet normal 0.0 -1.0 0.0
		outer loop
			vertex -11.5 -7.0 8.0
			vertex 2.5 -7.0 8.0
			vertex -11.5 -7.0 13.0
		endloop
	endfacet
	facet normal 0.0 -1.0 0.0
		outer loop
			vertex -11.5 -7.0 13.0
			vertex 2.5 -7.0 8.0
			vertex 2.5 -7.0 13.0
		endloop
	endfacet
	facet normal 0.0 1.0 0.0
		outer loop
			vertex -11.5 2.0 8.0
			vertex -11.5 2.0 13.0
			vertex 2.5 2.0 8.0
		endloop
	endfacet
	facet normal 0.0 1.0 0.0
		outer loop
			vertex -11.5 2.0 13.0
			vertex 2.5 2.0 13.0
			vertex 2.5 2.0 8.0
		endloop
	endfacet
	facet normal -1.0 0.0 0.0
		outer loop
			vertex -11.5 -7.0 8.0
			vertex -11.5 2.0 13.0
			vertex -11.5 2.0 8.0
		endloop
	endfacet
	facet normal -1.0 0.0 0.0
		outer loop
			vertex -11.5 -7.0 8.0
			vertex -11.5 -7.0 13.0
			vertex -11.5 2.0 13.0
		endloop
	endfacet
	facet normal 1.0 0.0 0.0
		outer loop
			vertex 2.5 -7.0 8.0
			vertex 2.5 2.0 8.0
			vertex 2.5 2.0 13.0
		endloop
	endfacet
	facet normal 1.0 0.0 0.0
		outer loop
			vertex 2.5 -7.0 8.0
			vertex 2.5 2.0 13.0
			vertex 2.5 -7.0 13.0
		endloop
	endfacet
	facet normal 0.0 0.0 -1.0
		outer loop
			vertex -8.0 -3.5 13.0
			vertex -6.0 -1.5 13.0
			vertex -6.0 -3.5 13.0
		endloop
	endfacet
	facet normal 0.0 0.0 -1.0
		outer loop
			vertex -8.0 -3.5 13.0
			vertex -8.0 -1.5 13.0
			vertex -6.0 -1.5 13.0
		endloop
	endfacet
	facet normal 0.0 0.0 1.0
		outer loop
			vertex -8.0 -3.5 16.5
			vertex -6.0 -3.5 16.5
			vertex -6.0 -1.5 16.5
		endloop
	endfacet
	facet normal 0.0 0.0 1.0
		outer loop
			vertex -8.0 -3.5 16.5
			vertex -6.0 -1.5 16.5
			vertex -8.0 -1.5 16.5
		endloop
	endfacet
	facet normal 0.0 -1.0 0.0
		outer loop
			vertex -8.0 -3.5 13.0
			vertex -6.0 -3.5 13.0
			vertex -8.0 -3.5 16.5
		endloop
	endfacet
	facet normal 0.0 -1.0 0.0
		outer loop
			vertex -8.0 -3.5 16.5
			vertex -6.0 -3.5 13.0
			vertex -6.0 -3.5 16.5
		endloop
	endfacet
	facet normal 0.0 1.0 0.0
		outer loop
			vertex -8.0 -1.5 13.0
			vertex -8.0 -1.5 16.5
			vertex -6.0 -1.5 13.0
		endloop
	endfacet
	facet normal 0.0 1.0 0.0
		outer loop
			vertex -8.0 -1.5 16.5
			vertex -6.0 -1.5 16.5
			vertex -6.0 -1.5 13.0
		endloop
	endfacet
	facet normal -1.0 0.0 0.0
		outer loop
			vertex -8.0 -3.5 13.0
			vertex -8.0 -1.5 16.5
			vertex -8.0 -1.5 13.0
		endloop
	endfacet
	facet normal -1.0 0.0 0.0
		outer loop
			vertex -8.0 -3.5 13.0
			vertex -8.0 -3.5 16.5
			vertex -8.0 -1.5 16.5
		endloop
	endfacet
	facet normal 1.0 0.0 0.0
		outer loop
			vertex -6.0 -3.5 13.0
			vertex -6.0 -1.5 13.0
			vertex -6.0 -1.5 16.5
		endloop
	endfacet
	facet normal 1.0 0.0 0.0
		outer loop
			vertex -6.0 -3.5 13.0
			vertex -6.0 -1.5 16.5
			vertex -6.0 -3.5 16.5
		endloop
	endfacet
	facet normal 0.0 0.0 -1.0
		outer loop
			vertex -3.0 -3.5 13.0
			vertex -1.0 -1.5 13.0
			vertex -1.0 -3.5 13.0
		endloop
	endfacet
	facet normal 0.0 0.0 -1.0
		outer loop
			vertex -3.0 -3.5 13.0
			vertex -3.0 -1.5 13.0
			vertex -1.0 -1.5 13.0
		endloop
	endfacet
	facet normal 0.0 0.0 1.0
		outer loop
			vertex -3.0 -3.5 16.5
			vertex -1.0 -3.5 16.5
			vertex -1.0 -1.5 16.5
		endloop
	endfacet
	facet normal 0.0 0.0 1.0
		outer loop
			vertex -3.0 -3.5 16.5
			vertex -1.0 -1.5 16.5
			vertex -3.0 -1.5 16.5
		endloop
	endfacet
	facet normal 0.0 -1.0 0.0
		outer loop
			vertex -3.0 -3.5 13.0
			vertex -1.0 -3.5 13.0
			vertex -3.0 -3.5 16.5
		endloop
	endfacet
	facet normal 0.0 -1.0 0.0
		outer loop
			vertex -3.0 -3.5 16.5
			vertex -1.0 -3.5 13.0
			vertex -1.0 -3.5 16.5
		endloop
	endfacet
	facet normal 0.0 1.0 0.0
		outer loop
			vertex -3.0 -1.5 13.0
			vertex -3.0 -1.5 16.5
			vertex -1.0 -1.5 13.0
		endloop
	endfacet
	facet normal 0.0 1.0 0.0
		outer loop
			vertex -3.0 -1.5 16.5
			vertex -1.0 -1.5 16.5
			vertex -1.0 -1.5 13.0
		endloop
	endfacet
	facet normal -1.0 0.0 0.0
		outer loop
			vertex -3.0 -3.5 13.0
			vertex -3.0 -1.5 16.5
			vertex -3.0 -1.5 13.0
		endloop
	endfacet
	facet normal -1.0 0.0 0.0
		outer loop
			vertex -3.0 -3.5 13.0
			vertex -3.0 -3.5 16.5
			vertex -3.0 -1.5 16.5
		endloop
	endfacet
	facet normal 1.0 0.0 0.0
		outer loop
			vertex -1.0 -3.5 13.0
			vertex -1.0 -1.5 13.0
			vertex -1.0 -1.5 16.5
		endloop
	endfacet
	facet normal 1.0 0.0 0.0
		outer loop
			vertex -1.0 -3.5 13.0
			vertex -1.0 -1.5 16.5
			vertex -1.0 -3.5 16.5
		endloop
	endfacet
	facet normal 0.0 0.0 -1.0
		outer loop
			vertex -19.5 0.5 16.5
			vertex -15.5 4.5 16.5
			vertex -15.5 0.5 16.5
		endloop
	endfacet
	facet normal 0.0 0.0 -1.0
		outer loop
			vertex -19.5 0.5 16.5
			vertex -19.5 4.5 16.5
			vertex -15.5 4.5 16.5
		endloop
	endfacet
	facet normal 0.0 0.0 1.0
		outer loop
			vertex -19.5 0.5 19.15
			vertex -15.5 0.5 19.15
			vertex -15.5 4.5 19.15
		endloop
	endfacet
	facet normal 0.0 0.0 1.0
		outer loop
			vertex -19.5 0.5 19.15
			vertex -15.5 4.5 19.15
			vertex -19.5 4.5 19.15
		endloop
	endfacet
	facet normal 0.0 -1.0 0.0
		outer loop
			vertex -19.5 0.5 16.5
			vertex -15.5 0.5 16.5
			vertex -19.5 0.5 19.15
		endloop
	endfacet
	facet normal 0.0 -1.0 0.0
		outer loop
			vertex -19.5 0.5 19.15
			vertex -15.5 0.5 16.5
			vertex -15.5 0.5 19.15
		endloop
	endfacet
	facet normal 0.0 1.0 0.0
		outer loop
			vertex -19.5 4.5 16.5
			vertex -19.5 4.5 19.15
			vertex -15.5 4.5 16.5
		endloop
	endfacet
	facet normal 0.0 1.0 0.0
		outer loop
			vertex -19.5 4.5 19.15
			vertex -15.5 4.5 19.15
			vertex -15.5 4.5 16.5
		endloop
	endfacet
	facet normal -1.0 0.0 0.0
		outer loop
			vertex -19.5 0.5 16.5
			vertex -19.5 4.5 19.15
			vertex -19.5 4.5 16.5
		endloop
	endfacet
	facet normal -1.0 0.0 0.0
		outer loop
			vertex -19.5 0.5 16.5
			vertex -19.5 0.5 19.15
			vertex -19.5 4.5 19.15
		endloop
	endfacet
	facet normal 1.0 0.0 0.0
		outer loop
			vertex -15.5 0.5 16.5
			vertex -15.5 4.5 16.5
			vertex -15.5 4.5 19.15
		endloop
	endfacet
	facet normal 1.0 0.0 0.0
		outer loop
			vertex -15.5 0.5 16.5
			vertex -15.5 4.5 19.15
			vertex -15.5 0.5 19.15
		endloop
	endfacet
	facet normal 0.0 0.0 -1.0
		outer loop
			vertex -20.0 0.0 13.0
			vertex -15.0 5.0 13.0
			vertex -15.0 0.0 13.0
		endloop
	endfacet
	facet normal 0.0 0.0 -1.0
		outer loop
			vertex -20.0 0.0 13.0
			vertex -20.0 5.0 13.0
			vertex -15.0 5.0 13.0
		endloop
	endfacet
	facet normal 0.0 0.0 1.0
		outer loop
			vertex -20.0 0.0 14.0
			vertex -15.0 0.0 14.0
			vertex -15.0 5.0 14.0
		endloop
	endfacet
	facet normal 0.0 0.0 1.0
		outer loop
			vertex -20.0 0.0 14.0
			vertex -15.0 5.0 14.0
			vertex -20.0 5.0 14.0
		endloop
	endfacet
	facet normal 0.0 -1.0 0.0
		outer loop
			vertex -20.0 0.0 13.0
			vertex -15.0 0.0 13.0
			vertex -20.0 0.0 14.0
		endloop
	endfacet
	facet normal 0.0 -1.0 0.0
		outer loop
			vertex -20.0 0.0 14.0
			vertex -15.0 0.0 13.0
			vertex -15.0 0.0 14.0
		endloop
	endfacet
	facet normal 0.0 1.0 0.0
		outer loop
			vertex -20.0 5.0 13.0
			vertex -20.0 5.0 14.0
			vertex -15.0 5.0 13.0
		endloop
	endfacet
	facet normal 0.0 1.0 0.0
		outer loop
			vertex -20.0 5.0 14.0
			vertex -15.0 5.0 14.0
			vertex -15.0 5.0 13.0
		endloop
	endfacet
	facet normal -1.0 0.0 0.0
		outer loop
			vertex -20.0 0.0 13.0
			vertex -20.0 5.0 14.0
			vertex -20.0 5.0 13.0
		endloop
	endfacet
	facet normal -1.0 0.0 0.0
		outer loop
			vertex -20.0 0.0 13.0
			vertex -20.0 0.0 14.0
			vertex -20.0 5.0 14.0
		endloop
	endfacet
	facet normal 1.0 0.0 0.0
		outer loop
			vertex -15.0 0.0 13.0
			vertex -15.0 5.0 13.0
			vertex -15.0 5.0 14.0
		endloop
	endfacet
	facet normal 1.0 0.0 0.0
		outer loop
			vertex -15.0 0.0 13.0
			vertex -15.0 5.0 14.0
			vertex -15.0 0.0 14.0
		endloop
	endfacet
	facet normal 0.0 0.0 -1.0
		outer loop
			vertex -18.5 1.5 14.0
			vertex -16.5 3.5 14.0
			vertex -16.5 1.5 14.0
		endloop
	endfacet
	facet normal 0.0 0.0 -1.0
		outer loop
			vertex -18.5 1.5 14.0
			vertex -18.5 3.5 14.0
			vertex -16.5 3.5 14.0
		endloop
	endfacet
	facet normal 0.0 0.0 1.0
		outer loop
			vertex -18.5 1.5 16.5
			vertex -16.5 1.5 16.5
			vertex -16.5 3.5 16.5
		endloop
	endfacet
	facet normal 0.0 0.0 1.0
		outer loop
			vertex -18.5 1.5 16.5
			vertex -16.5 3.5 16.5
			vertex -18.5 3.5 16.5
		endloop
	endfacet
	facet normal 0.0 -1.0 0.0
		outer loop
			vertex -18.5 1.5 14.0
			vertex -16.5 1.5 14.0
			vertex -18.5 1.5 16.5
		endloop
	endfacet
	facet normal 0.0 -1.0 0.0
		outer loop
			vertex -18.5 1.5 16.5
			vertex -16.5 1.5 14.0
			vertex -16.5 1.5 16.5
		endloop
	endfacet
	facet normal 0.0 1.0 0.0
		outer loop
			vertex -18.5 3.5 14.0
			vertex -18.5 3.5 16.5
			vertex -16.5 3.5 14.0
		endloop
	endfacet
	facet normal 0.0 1.0 0.0
		outer loop
			vertex -18.5 3.5 16.5
			vertex -16.5 3.5 16.5
			vertex -16.5 3.5 14.0
		endloop
	endfacet
	facet normal -1.0 0.0 0.0
		outer loop
			vertex -18.5 1.5 14.0
			vertex -18.5 3.5 16.5
			vertex -18.5 3.5 14.0
		endloop
	endfacet
	facet normal -1.0 0.0 0.0
		outer loop
			vertex -18.5 1.5 14.0
			vertex -18.5 1.5 16.5
			vertex -18.5 3.5 16.5
		endloop
	endfacet
	facet normal 1.0 0.0 0.0
		outer loop
			vertex -16.5 1.5 14.0
			vertex -16.5 3.5 14.0
			vertex -16.5 3.5 16.5
		endloop
	endfacet
	facet normal 1.0 0.0 0.0
		outer loop
			vertex -16.5 1.5 14.0
			vertex -16.5 3.5 16.5
			vertex -16.5 1.5 16.5
		endloop
	endfacet
	facet normal 0.0 0.0 -1.0
		outer loop
			vertex -9.5 -1.5 9.0
			vertex 0.5 6.5 9.0
			vertex 0.5 -1.5 9.0
		endloop
	endfacet
	facet normal 0.0 0.0 -1.0
		outer loop
			vertex -9.5 -1.5 9.0
			vertex -9.5 6.5 9.0
			vertex 0.5 6.5 9.0
		endloop
	endfacet
	facet normal 0.0 0.0 1.0
		outer loop
			vertex -9.5 -1.5 13.0
			vertex 0.5 -1.5 13.0
			vertex 0.5 6.5 13.0
		endloop
	endfacet
	facet normal 0.0 0.0 1.0
		outer loop
			vertex -9.5 -1.5 13.0
			vertex 0.5 6.5 13.0
			vertex -9.5 6.5 13.0
		endloop
	endfacet
	facet normal 0.0 -1.0 0.0
		outer loop
			vertex -9.5 -1.5 9.0
			vertex 0.5 -1.5 9.0
			vertex -9.5 -1.5 13.0
		endloop
	endfacet
	facet normal 0.0 -1.0 0.0
		outer loop
			vertex -9.5 -1.5 13.0
			vertex 0.5 -1.5 9.0
			vertex 0.5 -1.5 13.0
		endloop
	endfacet
	facet normal 0.0 1.0 0.0
		outer loop
			vertex -9.5 6.5 9.0
			vertex -9.5 6.5 13.0
			vertex 0.5 6.5 9.0
		endloop
	endfacet
	facet normal 0.0 1.0 0.0
		outer loop
			vertex -9.5 6.5 13.0
			vertex 0.5 6.5 13.0
			vertex 0.5 6.5 9.0
		endloop
	endfacet
	facet normal -1.0 0.0 0.0
		outer loop
			vertex -9.5 -1.5 9.0
			vertex -9.5 6.5 13.0
			vertex -9.5 6.5 9.0
		endloop
	endfacet
	facet normal -1.0 0.0 0.0
		outer loop
			vertex -9.5 -1.5 9.0
			vertex -9.5 -1.5 13.0
			vertex -9.5 6.5 13.0
		endloop
	endfacet
	facet normal 1.0 0.0 0.0
		outer loop
			vertex 0.5 -1.5 9.0
			vertex 0.5 6.5 9.0
			vertex 0.5 6.5 13.0
		endloop
	endfacet
	facet normal 1.0 0.0 0.0
		outer loop
			vertex 0.5 -1.5 9.0
			vertex 0.5 6.5 13.0
			vertex 0.5 -1.5 13.0
		endloop
	endfacet
	facet normal 0.0 0.0 -1.0
		outer loop
			vertex -11.5 1.5 13.0
			vertex 2.5 3.5 13.0
			vertex 2.5 1.5 13.0
		endloop
	endfacet
	facet normal 0.0 0.0 -1.0
		outer loop
			vertex -11.5 1.5 13.0
			vertex -11.5 3.5 13.0
			vertex 2.5 3.5 13.0
		endloop
	endfacet
	facet normal 0.0 0.0 1.0
		outer loop
			vertex -11.5 1.5 14.0
			vertex 2.5 1.5 14.0
			vertex 2.5 3.5 14.0
		endloop
	endfacet
	facet normal 0.0 0.0 1.0
		outer loop
			vertex -11.5 1.5 14.0
			vertex 2.5 3.5 14.0
			vertex -11.5 3.5 14.0
		endloop
	endfacet
	facet normal 0.0 -1.0 0.0
		outer loop
			vertex -11.5 1.5 13.0
			vertex 2.5 1.5 13.0
			vertex -11.5 1.5 14.0
		endloop
	endfacet
	facet normal 0.0 -1.0 0.0
		outer loop
			vertex -11.5 1.5 14.0
			vertex 2.5 1.5 13.0
			vertex 2.5 1.5 14.0
		endloop
	endfacet
	facet normal 0.0 1.0 0.0
		outer loop
			vertex -11.5 3.5 13.0
			vertex -11.5 3.5 14.0
			vertex 2.5 3.5 13.0
		endloop
	endfacet
	facet normal 0.0 1.0 0.0
		outer loop
			vertex -11.5 3.5 14.0
			vertex 2.5 3.5 14.0
			vertex 2.5 3.5 13.0
		endloop
	endfacet
	facet normal -1.0 0.0 0.0
		outer loop
			vertex -11.5 1.5 13.0
			vertex -11.5 3.5 14.0
			vertex -11.5 3.5 13.0
		endloop
	endfacet
	facet normal -1.0 0.0 0.0
		outer loop
			vertex -11.5 1.5 13.0
			vertex -11.5 1.5 14.0
			vertex -11.5 3.5 14.0
		endloop
	endfacet
	facet normal 1.0 0.0 0.0
		outer loop
			vertex 2.5 1.5 13.0
			vertex 2.5 3.5 13.0
			vertex 2.5 3.5 14.0
		endloop
	endfacet
	facet normal 1.0 0.0 0.0
		outer loop
			vertex 2.5 1.5 13.0
			vertex 2.5 3.5 14.0
			vertex 2.5 1.5 14.0
		endloop
	endfacet
	facet normal 0.0 0.0 -1.0
		outer loop
			vertex -15.5 -7.5 0.0
			vertex 6.5 12.5 0.0
			vertex 6.5 -7.5 0.0
		endloop
	endfacet
	facet normal 0.0 0.0 -1.0
		outer loop
			vertex -15.5 -7.5 0.0
			vertex -15.5 12.5 0.0
			vertex 6.5 12.5 0.0
		endloop
	endfacet
	facet normal 0.0 0.0 1.0
		outer loop
			vertex -15.5 -7.5 13.0
			vertex 6.5 -7.5 13.0
			vertex 6.5 12.5 13.0
		endloop
	endfacet
	facet normal 0.0 0.0 1.0
		outer loop
			vertex -15.5 -7.5 13.0
			vertex 6.5 12.5 13.0
			vertex -15.5 12.5 13.0
		endloop
	endfacet
	facet normal 0.0 -1.0 0.0
		outer loop
			vertex -15.5 -7.5 0.0
			vertex 6.5 -7.5 0.0
			vertex -15.5 -7.5 13.0
		endloop
	endfacet
	facet normal 0.0 -1.0 0.0
		outer loop
			vertex -15.5 -7.5 13.0
			vertex 6.5 -7.5 0.0
			vertex 6.5 -7.5 13.0
		endloop
	endfacet
	facet normal 0.0 1.0 0.0
		outer loop
			vertex -15.5 12.5 0.0
			vertex -15.5 12.5 13.0
			vertex 6.5 12.5 0.0
		endloop
	endfacet
	facet normal 0.0 1.0 0.0
		outer loop
			vertex -15.5 12.5 13.0
			vertex 6.5 12.5 13.0
			vertex 6.5 12.5 0.0
		endloop
	endfacet
	facet normal -1.0 0.0 0.0
		outer loop
			vertex -15.5 -7.5 0.0
			vertex -15.5 12.5 13.0
			vertex -15.5 12.5 0.0
		endloop
	endfacet
	facet normal -1.0 0.0 0.0
		outer loop
			vertex -15.5 -7.5 0.0
			vertex -15.5 -7.5 13.0
			vertex -15.5 12.5 13.0
		endloop
	endfacet
	facet normal 1.0 0.0 0.0
		outer loop
			vertex 6.5 -7.5 0.0
			vertex 6.5 12.5 0.0
			vertex 6.5 12.5 13.0
		endloop
	endfacet
	facet normal 1.0 0.0 0.0
		outer loop
			vertex 6.5 -7.5 0.0
			vertex 6.5 12.5 13.0
			vertex 6.5 -7.5 13.0
		endloop
	endfacet
	facet normal 0.0 0.0 -1.0
		outer loop
			vertex -11.5 -3.5 8.0
			vertex 2.5 8.5 8.0
			vertex 2.5 -3.5 8.0
		endloop
	endfacet
	facet normal 0.0 0.0 -1.0
		outer loop
			vertex -11.5 -3.5 8.0
			vertex -11.5 8.5 8.0
			vertex 2.5 8.5 8.0
		endloop
	endfacet
	facet normal 0.0 0.0 1.0
		outer loop
			vertex -11.5 -3.5 13.0
			vertex 2.5 -3.5 13.0
			vertex 2.5 8.5 13.0
		endloop
	endfacet
	facet normal 0.0 0.0 1.0
		outer loop
			vertex -11.5 -3.5 13.0
			vertex 2.5 8.5 13.0
			vertex -11.5 8.5 13.0
		endloop
	endfacet
	facet normal 0.0 -1.0 0.0
		outer loop
			vertex -11.5 -3.5 8.0
			vertex 2.5 -3.5 8.0
			vertex -11.5 -3.5 13.0
		endloop
	endfacet
	facet normal 0.0 -1.0 0.0
		outer loop
			vertex -11.5 -3.5 13.0
			vertex 2.5 -3.5 8.0
			vertex 2.5 -3.5 13.0
		endloop
	endfacet
	facet normal 0.0 1.0 0.0
		outer loop
			vertex -11.5 8.5 8.0
			vertex -11.5 8.5 13.0
			vertex 2.5 8.5 8.0
		endloop
	endfacet
	facet normal 0.0 1.0 0.0
		outer loop
			vertex -11.5 8.5 13.0
			vertex 2.5 8.5 13.0
			vertex 2.5 8.5 8.0
		endloop
	endfacet
	facet normal -1.0 0.0 0.0
		outer loop
			vertex -11.5 -3.5 8.0
			vertex -11.5 8.5 13.0
			vertex -11.5 8.5 8.0
		endloop
	endfacet
	facet normal -1.0 0.0 0.0
		outer loop
			vertex -11.5 -3.5 8.0
			vertex -11.5 -3.5 13.0
			vertex -11.5 8.5 13.0
		endloop
	endfacet
	facet normal 1.0 0.0 0.0
		outer loop
			vertex 2.5 -3.5 8.0
			vertex 2.5 8.5 8.0
			vertex 2.5 8.5 13.0
		endloop
	endfacet
	facet normal 1.0 0.0 0.0
		outer loop
			vertex 2.5 -3.5 8.0
			vertex 2.5 8.5 13.0
			vertex 2.5 -3.5 13.0
		endloop
	endfacet
	facet normal 0.0 0.0 -1.0
		outer loop
			vertex -9.0 -18.5 16.5
			vertex 0.0 -14.5 16.5
			vertex 0.0 -18.5 16.5
		endloop
	endfacet
	facet normal 0.0 0.0 -1.0
		outer loop
			vertex -9.0 -18.5 16.5
			vertex -9.0 -14.5 16.5
			vertex 0.0 -14.5 16.5
		endloop
	endfacet
	facet normal 0.0 0.0 1.0
		outer loop
			vertex -9.0 -18.5 19.15
			vertex 0.0 -18.5 19.15
			vertex 0.0 -14.5 19.15
		endloop
	endfacet
	facet normal 0.0 0.0 1.0
		outer loop
			vertex -9.0 -18.5 19.15
			vertex 0.0 -14.5 19.15
			vertex -9.0 -14.5 19.15
		endloop
	endfacet
	facet normal 0.0 -1.0 0.0
		outer loop
			vertex -9.0 -18.5 16.5
			vertex 0.0 -18.5 16.5
			vertex -9.0 -18.5 19.15
		endloop
	endfacet
	facet normal 0.0 -1.0 0.0
		outer loop
			vertex -9.0 -18.5 19.15
			vertex 0.0 -18.5 16.5
			vertex 0.0 -18.5 19.15
		endloop
	endfacet
	facet normal 0.0 1.0 0.0
		outer loop
			vertex -9.0 -14.5 16.5
			vertex -9.0 -14.5 19.15
			vertex 0.0 -14.5 16.5
		endloop
	endfacet
	facet normal 0.0 1.0 0.0
		outer loop
			vertex -9.0 -14.5 19.15
			vertex 0.0 -14.5 19.15
			vertex 0.0 -14.5 16.5
		endloop
	endfacet
	facet normal -1.0 0.0 0.0
		outer loop
			vertex -9.0 -18.5 16.5
			vertex -9.0 -14.5 19.15
			vertex -9.0 -14.5 16.5
		endloop
	endfacet
	facet normal -1.0 0.0 0.0
		outer loop
			vertex -9.0 -18.5 16.5
			vertex -9.0 -18.5 19.15
			vertex -9.0 -14.5 19.15
		endloop
	endfacet
	facet normal 1.0 0.0 0.0
		outer loop
			vertex 0.0 -18.5 16.5
			vertex 0.0 -14.5 16.5
			vertex 0.0 -14.5 19.15
		endloop
	endfacet
	facet normal 1.0 0.0 0.0
		outer loop
			vertex 0.0 -18.5 16.5
			vertex 0.0 -14.5 19.15
			vertex 0.0 -18.5 19.15
		endloop
	endfacet
	facet normal 0.0 0.0 -1.0
		outer loop
			vertex -9.5 -19.0 9.0
			vertex 0.5 -14.0 9.0
			vertex 0.5 -19.0 9.0
		endloop
	endfacet
	facet normal 0.0 0.0 -1.0
		outer loop
			vertex -9.5 -19.0 9.0
			vertex -9.5 -14.0 9.0
			vertex 0.5 -14.0 9.0
		endloop
	endfacet
	facet normal 0.0 0.0 1.0
		outer loop
			vertex -9.5 -19.0 13.0
			vertex 0.5 -19.0 13.0
			vertex 0.5 -14.0 13.0
		endloop
	endfacet
	facet normal 0.0 0.0 1.0
		outer loop
			vertex -9.5 -19.0 13.0
			vertex 0.5 -14.0 13.0
			vertex -9.5 -14.0 13.0
		endloop
	endfacet
	facet normal 0.0 -1.0 0.0
		outer loop
			vertex -9.5 -19.0 9.0
			vertex 0.5 -19.0 9.0
			vertex -9.5 -19.0 13.0
		endloop
	endfacet
	facet normal 0.0 -1.0 0.0
		outer loop
			vertex -9.5 -19.0 13.0
			vertex 0.5 -19.0 9.0
			vertex 0.5 -19.0 13.0
		endloop
	endfacet
	facet normal 0.0 1.0 0.0
		outer loop
			vertex -9.5 -14.0 9.0
			vertex -9.5 -14.0 13.0
			vertex 0.5 -14.0 9.0
		endloop
	endfacet
	facet normal 0.0 1.0 0.0
		outer loop
			vertex -9.5 -14.0 13.0
			vertex 0.5 -14.0 13.0
			vertex 0.5 -14.0 9.0
		endloop
	endfacet
	facet normal -1.0 0.0 0.0
		outer loop
			vertex -9.5 -19.0 9.0
			vertex -9.5 -14.0 13.0
			vertex -9.5 -14.0 9.0
		endloop
	endfacet
	facet normal -1.0 0.0 0.0
		outer loop
			vertex -9.5 -19.0 9.0
			vertex -9.5 -19.0 13.0
			vertex -9.5 -14.0 13.0
		endloop
	endfacet
	facet normal 1.0 0.0 0.0
		outer loop
			vertex 0.5 -19.0 9.0
			vertex 0.5 -14.0 9.0
			vertex 0.5 -14.0 13.0
		endloop
	endfacet
	facet normal 1.0 0.0 0.0
		outer loop
			vertex 0.5 -19.0 9.0
			vertex 0.5 -14.0 13.0
			vertex 0.5 -19.0 13.0
		endloop
	endfacet
	facet normal 0.0 0.0 -1.0
		outer loop
			vertex -12.5 -22.0 0.0
			vertex 3.5 -11.0 0.0
			vertex 3.5 -22.0 0.0
		endloop
	endfacet
	facet normal 0.0 0.0 -1.0
		outer loop
			vertex -12.5 -22.0 0.0
			vertex -12.5 -11.0 0.0
			vertex 3.5 -11.0 0.0
		endloop
	endfacet
	facet normal 0.0 0.0 1.0
		outer loop
			vertex -12.5 -22.0 13.0
			vertex 3.5 -22.0 13.0
			vertex 3.5 -11.0 13.0
		endloop
	endfacet
	facet normal 0.0 0.0 1.0
		outer loop
			vertex -12.5 -22.0 13.0
			vertex 3.5 -11.0 13.0
			vertex -12.5 -11.0 13.0
		endloop
	endfacet
	facet normal 0.0 -1.0 0.0
		outer loop
			vertex -12.5 -22.0 0.0
			vertex 3.5 -22.0 0.0
			vertex -12.5 -22.0 13.0
		endloop
	endfacet
	facet normal 0.0 -1.0 0.0
		outer loop
			vertex -12.5 -22.0 13.0
			vertex 3.5 -22.0 0.0
			vertex 3.5 -22.0 13.0
		endloop
	endfacet
	facet normal 0.0 1.0 0.0
		outer loop
			vertex -12.5 -11.0 0.0
			vertex -12.5 -11.0 13.0
			vertex 3.5 -11.0 0.0
		endloop
	endfacet
	facet normal 0.0 1.0 0.0
		outer loop
			vertex -12.5 -11.0 13.0
			vertex 3.5 -11.0 13.0
			vertex 3.5 -11.0 0.0
		endloop
	endfacet
	facet normal -1.0 0.0 0.0
		outer loop
			vertex -12.5 -22.0 0.0
			vertex -12.5 -11.0 13.0
			vertex -12.5 -11.0 0.0
		endloop
	endfacet
	facet normal -1.0 0.0 0.0
		outer loop
			vertex -12.5 -22.0 0.0
			vertex -12.5 -22.0 13.0
			vertex -12.5 -11.0 13.0
		endloop
	endfacet
	facet normal 1.0 0.0 0.0
		outer loop
			vertex 3.5 -22.0 0.0
			vertex 3.5 -11.0 0.0
			vertex 3.5 -11.0 13.0
		endloop
	endfacet
	facet normal 1.0 0.0 0.0
		outer loop
			vertex 3.5 -22.0 0.0
			vertex 3.5 -11.0 13.0
			vertex 3.5 -22.0 13.0
		endloop
	endfacet
	facet normal 0.0 0.0 -1.0
		outer loop
			vertex -11.5 -21.0 8.0
			vertex 2.5 -12.0 8.0
			vertex 2.5 -21.0 8.0
		endloop
	endfacet
	facet normal 0.0 0.0 -1.0
		outer loop
			vertex -11.5 -21.0 8.0
			vertex -11.5 -12.0 8.0
			vertex 2.5 -12.0 8.0
		endloop
	endfacet
	facet normal 0.0 0.0 1.0
		outer loop
			vertex -11.5 -21.0 13.0
			vertex 2.5 -21.0 13.0
			vertex 2.5 -12.0 13.0
		endloop
	endfacet
	facet normal 0.0 0.0 1.0
		outer loop
			vertex -11.5 -21.0 13.0
			vertex 2.5 -12.0 13.0
			vertex -11.5 -12.0 13.0
		endloop
	endfacet
	facet normal 0.0 -1.0 0.0
		outer loop
			vertex -11.5 -21.0 8.0
			vertex 2.5 -21.0 8.0
			vertex -11.5 -21.0 13.0
		endloop
	endfacet
	facet normal 0.0 -1.0 0.0
		outer loop
			vertex -11.5 -21.0 13.0
			vertex 2.5 -21.0 8.0
			vertex 2.5 -21.0 13.0
		endloop
	endfacet
	facet normal 0.0 1.0 0.0
		outer loop
			vertex -11.5 -12.0 8.0
			vertex -11.5 -12.0 13.0
			vertex 2.5 -12.0 8.0
		endloop
	endfacet
	facet normal 0.0 1.0 0.0
		outer loop
			vertex -11.5 -12.0 13.0
			vertex 2.5 -12.0 13.0
			vertex 2.5 -12.0 8.0
		endloop
	endfacet
	facet normal -1.0 0.0 0.0
		outer loop
			vertex -11.5 -21.0 8.0
			vertex -11.5 -12.0 13.0
			vertex -11.5 -12.0 8.0
		endloop
	endfacet
	facet normal -1.0 0.0 0.0
		outer loop
			vertex -11.5 -21.0 8.0
			vertex -11.5 -21.0 13.0
			vertex -11.5 -12.0 13.0
		endloop
	endfacet
	facet normal 1.0 0.0 0.0
		outer loop
			vertex 2.5 -21.0 8.0
			vertex 2.5 -12.0 8.0
			vertex 2.5 -12.0 13.0
		endloop
	endfacet
	facet normal 1.0 0.0 0.0
		outer loop
			vertex 2.5 -21.0 8.0
			vertex 2.5 -12.0 13.0
			vertex 2.5 -21.0 13.0
		endloop
	endfacet
	facet normal 0.0 0.0 -1.0
		outer loop
			vertex -8.0 -17.5 13.0
			vertex -6.0 -15.5 13.0
			vertex -6.0 -17.5 13.0
		endloop
	endfacet
	facet normal 0.0 0.0 -1.0
		outer loop
			vertex -8.0 -17.5 13.0
			vertex -8.0 -15.5 13.0
			vertex -6.0 -15.5 13.0
		endloop
	endfacet
	facet normal 0.0 0.0 1.0
		outer loop
			vertex -8.0 -17.5 16.5
			vertex -6.0 -17.5 16.5
			vertex -6.0 -15.5 16.5
		endloop
	endfacet
	facet normal 0.0 0.0 1.0
		outer loop
			vertex -8.0 -17.5 16.5
			vertex -6.0 -15.5 16.5
			vertex -8.0 -15.5 16.5
		endloop
	endfacet
	facet normal 0.0 -1.0 0.0
		outer loop
			vertex -8.0 -17.5 13.0
			vertex -6.0 -17.5 13.0
			vertex -8.0 -17.5 16.5
		endloop
	endfacet
	facet normal 0.0 -1.0 0.0
		outer loop
			vertex -8.0 -17.5 16.5
			vertex -6.0 -17.5 13.0
			vertex -6.0 -17.5 16.5
		endloop
	endfacet
	facet normal 0.0 1.0 0.0
		outer loop
			vertex -8.0 -15.5 13.0
			vertex -8.0 -15.5 16.5
			vertex -6.0 -15.5 13.0
		endloop
	endfacet
	facet normal 0.0 1.0 0.0
		outer loop
			vertex -8.0 -15.5 16.5
			vertex -6.0 -15.5 16.5
			vertex -6.0 -15.5 13.0
		endloop
	endfacet
	facet normal -1.0 0.0 0.0
		outer loop
			vertex -8.0 -17.5 13.0
			vertex -8.0 -15.5 16.5
			vertex -8.0 -15.5 13.0
		endloop
	endfacet
	facet normal -1.0 0.0 0.0
		outer loop
			vertex -8.0 -17.5 13.0
			vertex -8.0 -17.5 16.5
			vertex -8.0 -15.5 16.5
		endloop
	endfacet
	facet normal 1.0 0.0 0.0
		outer loop
			vertex -6.0 -17.5 13.0
			vertex -6.0 -15.5 13.0
			vertex -6.0 -15.5 16.5
		endloop
	endfacet
	facet normal 1.0 0.0 0.0
		outer loop
			vertex -6.0 -17.5 13.0
			vertex -6.0 -15.5 16.5
			vertex -6.0 -17.5 16.5
		endloop
	endfacet
	facet normal 0.0 0.0 -1.0
		outer loop
			vertex -3.0 -17.5 13.0
			vertex -1.0 -15.5 13.0
			vertex -1.0 -17.5 13.0
		endloop
	endfacet
	facet normal 0.0 0.0 -1.0
		outer loop
			vertex -3.0 -17.5 13.0
			vertex -3.0 -15.5 13.0
			vertex -1.0 -15.5 13.0
		endloop
	endfacet
	facet normal 0.0 0.0 1.0
		outer loop
			vertex -3.0 -17.5 16.5
			vertex -1.0 -17.5 16.5
			vertex -1.0 -15.5 16.5
		endloop
	endfacet
	facet normal 0.0 0.0 1.0
		outer loop
			vertex -3.0 -17.5 16.5
			vertex -1.0 -15.5 16.5
			vertex -3.0 -15.5 16.5
		endloop
	endfacet
	facet normal 0.0 -1.0 0.0
		outer loop
			vertex -3.0 -17.5 13.0
			vertex -1.0 -17.5 13.0
			vertex -3.0 -17.5 16.5
		endloop
	endfacet
	facet normal 0.0 -1.0 0.0
		outer loop
			vertex -3.0 -17.5 16.5
			vertex -1.0 -17.5 13.0
			vertex -1.0 -17.5 16.5
		endloop
	endfacet
	facet normal 0.0 1.0 0.0
		outer loop
			vertex -3.0 -15.5 13.0
			vertex -3.0 -15.5 16.5
			vertex -1.0 -15.5 13.0
		endloop
	endfacet
	facet normal 0.0 1.0 0.0
		outer loop
			vertex -3.0 -15.5 16.5
			vertex -1.0 -15.5 16.5
			vertex -1.0 -15.5 13.0
		endloop
	endfacet
	facet normal -1.0 0.0 0.0
		outer loop
			vertex -3.0 -17.5 13.0
			vertex -3.0 -15.5 16.5
			vertex -3.0 -15.5 13.0
		endloop
	endfacet
	facet normal -1.0 0.0 0.0
		outer loop
			vertex -3.0 -17.5 13.0
			vertex -3.0 -17.5 16.5
			vertex -3.0 -15.5 16.5
		endloop
	endfacet
	facet normal 1.0 0.0 0.0
		outer loop
			vertex -1.0 -17.5 13.0
			vertex -1.0 -15.5 13.0
			vertex -1.0 -15.5 16.5
		endloop
	endfacet
	facet normal 1.0 0.0 0.0
		outer loop
			vertex -1.0 -17.5 13.0
			vertex -1.0 -15.5 16.5
			vertex -1.0 -17.5 16.5
		endloop
	endfacet
	facet normal 0.0 0.0 -1.0
		outer loop
			vertex -6.5 4.75 9.0
			vertex -3.5 9.5 9.0
			vertex -3.5 4.75 9.0
		endloop
	endfacet
	facet normal 0.0 0.0 -1.0
		outer loop
			vertex -6.5 4.75 9.0
			vertex -6.5 9.5 9.0
			vertex -3.5 9.5 9.0
		endloop
	endfacet
	facet normal 0.0 0.0 1.0
		outer loop
			vertex -6.5 4.75 13.0
			vertex -3.5 4.75 13.0
			vertex -3.5 9.5 13.0
		endloop
	endfacet
	facet normal 0.0 0.0 1.0
		outer loop
			vertex -6.5 4.75 13.0
			vertex -3.5 9.5 13.0
			vertex -6.5 9.5 13.0
		endloop
	endfacet
	facet normal 0.0 -1.0 0.0
		outer loop
			vertex -6.5 4.75 9.0
			vertex -3.5 4.75 9.0
			vertex -6.5 4.75 13.0
		endloop
	endfacet
	facet normal 0.0 -1.0 0.0
		outer loop
			vertex -6.5 4.75 13.0
			vertex -3.5 4.75 9.0
			vertex -3.5 4.75 13.0
		endloop
	endfacet
	facet normal 0.0 1.0 0.0
		outer loop
			vertex -6.5 9.5 9.0
			vertex -6.5 9.5 13.0
			vertex -3.5 9.5 9.0
		endloop
	endfacet
	facet normal 0.0 1.0 0.0
		outer loop
			vertex -6.5 9.5 13.0
			vertex -3.5 9.5 13.0
			vertex -3.5 9.5 9.0
		endloop
	endfacet
	facet normal -1.0 0.0 0.0
		outer loop
			vertex -6.5 4.75 9.0
			vertex -6.5 9.5 13.0
			vertex -6.5 9.5 9.0
		endloop
	endfacet
	facet normal -1.0 0.0 0.0
		outer loop
			vertex -6.5 4.75 9.0
			vertex -6.5 4.75 13.0
			vertex -6.5 9.5 13.0
		endloop
	endfacet
	facet normal 1.0 0.0 0.0
		outer loop
			vertex -3.5 4.75 9.0
			vertex -3.5 9.5 9.0
			vertex -3.5 9.5 13.0
		endloop
	endfacet
	facet normal 1.0 0.0 0.0
		outer loop
			vertex -3.5 4.75 9.0
			vertex -3.5 9.5 13.0
			vertex -3.5 4.75 13.0
		endloop
	endfacet
	facet normal 0.0 0.0 -1.0
		outer loop
			vertex -12.5 -1.25 0.0
			vertex 2.5 15.5 0.0
			vertex 2.5 -1.25 0.0
		endloop
	endfacet
	facet normal 0.0 0.0 -1.0
		outer loop
			vertex -12.5 -1.25 0.0
			vertex -12.5 15.5 0.0
			vertex 2.5 15.5 0.0
		endloop
	endfacet
	facet normal 0.0 0.0 1.0
		outer loop
			vertex -12.5 -1.25 13.0
			vertex 2.5 -1.25 13.0
			vertex 2.5 15.5 13.0
		endloop
	endfacet
	facet normal 0.0 0.0 1.0
		outer loop
			vertex -12.5 -1.25 13.0
			vertex 2.5 15.5 13.0
			vertex -12.5 15.5 13.0
		endloop
	endfacet
	facet normal 0.0 -1.0 0.0
		outer loop
			vertex -12.5 -1.25 0.0
			vertex 2.5 -1.25 0.0
			vertex -12.5 -1.25 13.0
		endloop
	endfacet
	facet normal 0.0 -1.0 0.0
		outer loop
			vertex -12.5 -1.25 13.0
			vertex 2.5 -1.25 0.0
			vertex 2.5 -1.25 13.0
		endloop
	endfacet
	facet normal 0.0 1.0 0.0
		outer loop
			vertex -12.5 15.5 0.0
			vertex -12.5 15.5 13.0
			vertex 2.5 15.5 0.0
		endloop
	endfacet
	facet normal 0.0 1.0 0.0
		outer loop
			vertex -12.5 15.5 13.0
			vertex 2.5 15.5 13.0
			vertex 2.5 15.5 0.0
		endloop
	endfacet
	facet normal -1.0 0.0 0.0
		outer loop
			vertex -12.5 -1.25 0.0
			vertex -12.5 15.5 13.0
			vertex -12.5 15.5 0.0
		endloop
	endfacet
	facet normal -1.0 0.0 0.0
		outer loop
			vertex -12.5 -1.25 0.0
			vertex -12.5 -1.25 13.0
			vertex -12.5 15.5 13.0
		endloop
	endfacet
	facet normal 1.0 0.0 0.0
		outer loop
			vertex 2.5 -1.25 0.0
			vertex 2.5 15.5 0.0
			vertex 2.5 15.5 13.0
		endloop
	endfacet
	facet normal 1.0 0.0 0.0
		outer loop
			vertex 2.5 -1.25 0.0
			vertex 2.5 15.5 13.0
			vertex 2.5 -1.25 13.0
		endloop
	endfacet
	facet normal 0.0 0.0 -1.0
		outer loop
			vertex -8.5 2.75 8.0
			vertex -1.5 11.5 8.0
			vertex -1.5 2.75 8.0
		endloop
	endfacet
	facet normal 0.0 0.0 -1.0
		outer loop
			vertex -8.5 2.75 8.0
			vertex -8.5 11.5 8.0
			vertex -1.5 11.5 8.0
		endloop
	endfacet
	facet normal 0.0 0.0 1.0
		outer loop
			vertex -8.5 2.75 13.0
			vertex -1.5 2.75 13.0
			vertex -1.5 11.5 13.0
		endloop
	endfacet
	facet normal 0.0 0.0 1.0
		outer loop
			vertex -8.5 2.75 13.0
			vertex -1.5 11.5 13.0
			vertex -8.5 11.5 13.0
		endloop
	endfacet
	facet normal 0.0 -1.0 0.0
		outer loop
			vertex -8.5 2.75 8.0
			vertex -1.5 2.75 8.0
			vertex -8.5 2.75 13.0
		endloop
	endfacet
	facet normal 0.0 -1.0 0.0
		outer loop
			vertex -8.5 2.75 13.0
			vertex -1.5 2.75 8.0
			vertex -1.5 2.75 13.0
		endloop
	endfacet
	facet normal 0.0 1.0 0.0
		outer loop
			vertex -8.5 11.5 8.0
			vertex -8.5 11.5 13.0
			vertex -1.5 11.5 8.0
		endloop
	endfacet
	facet normal 0.0 1.0 0.0
		outer loop
			vertex -8.5 11.5 13.0
			vertex -1.5 11.5 13.0
			vertex -1.5 11.5 8.0
		endloop
	endfacet
	facet normal -1.0 0.0 0.0
		outer loop
			vertex -8.5 2.75 8.0
			vertex -8.5 11.5 13.0
			vertex -8.5 11.5 8.0
		endloop
	endfacet
	facet normal -1.0 0.0 0.0
		outer loop
			vertex -8.5 2.75 8.0
			vertex -8.5 2.75 13.0
			vertex -8.5 11.5 13.0
		endloop
	endfacet
	facet normal 1.0 0.0 0.0
		outer loop
			vertex -1.5 2.75 8.0
			vertex -1.5 11.5 8.0
			vertex -1.5 11.5 13.0
		endloop
	endfacet
	facet normal 1.0 0.0 0.0
		outer loop
			vertex -1.5 2.75 8.0
			vertex -1.5 11.5 13.0
			vertex -1.5 2.75 13.0
		endloop
	endfacet
	facet normal 0.0 0.0 -1.0
		outer loop
			vertex -5.5 -4.5 9.0
			vertex -2.5 0.25 9.0
			vertex -2.5 -4.5 9.0
		endloop
	endfacet
	facet normal 0.0 0.0 -1.0
		outer loop
			vertex -5.5 -4.5 9.0
			vertex -5.5 0.25 9.0
			vertex -2.5 0.25 9.0
		endloop
	endfacet
	facet normal 0.0 0.0 1.0
		outer loop
			vertex -5.5 -4.5 13.0
			vertex -2.5 -4.5 13.0
			vertex -2.5 0.25 13.0
		endloop
	endfacet
	facet normal 0.0 0.0 1.0
		outer loop
			vertex -5.5 -4.5 13.0
			vertex -2.5 0.25 13.0
			vertex -5.5 0.25 13.0
		endloop
	endfacet
	facet normal 0.0 -1.0 0.0
		outer loop
			vertex -5.5 -4.5 9.0
			vertex -2.5 -4.5 9.0
			vertex -5.5 -4.5 13.0
		endloop
	endfacet
	facet normal 0.0 -1.0 0.0
		outer loop
			vertex -5.5 -4.5 13.0
			vertex -2.5 -4.5 9.0
			vertex -2.5 -4.5 13.0
		endloop
	endfacet
	facet normal 0.0 1.0 0.0
		outer loop
			vertex -5.5 0.25 9.0
			vertex -5.5 0.25 13.0
			vertex -2.5 0.25 9.0
		endloop
	endfacet
	facet normal 0.0 1.0 0.0
		outer loop
			vertex -5.5 0.25 13.0
			vertex -2.5 0.25 13.0
			vertex -2.5 0.25 9.0
		endloop
	endfacet
	facet normal -1.0 0.0 0.0
		outer loop
			vertex -5.5 -4.5 9.0
			vertex -5.5 0.25 13.0
			vertex -5.5 0.25 9.0
		endloop
	endfacet
	facet normal -1.0 0.0 0.0
		outer loop
			vertex -5.5 -4.5 9.0
			vertex -5.5 -4.5 13.0
			vertex -5.5 0.25 13.0
		endloop
	endfacet
	facet normal 1.0 0.0 0.0
		outer loop
			vertex -2.5 -4.5 9.0
			vertex -2.5 0.25 9.0
			vertex -2.5 0.25 13.0
		endloop
	endfacet
	facet normal 1.0 0.0 0.0
		outer loop
			vertex -2.5 -4.5 9.0
			vertex -2.5 0.25 13.0
			vertex -2.5 -4.5 13.0
		endloop
	endfacet
	facet normal 0.0 0.0 -1.0
		outer loop
			vertex -11.5 -10.5 0.0
			vertex 3.5 6.25 0.0
			vertex 3.5 -10.5 0.0
		endloop
	endfacet
	facet normal 0.0 0.0 -1.0
		outer loop
			vertex -11.5 -10.5 0.0
			vertex -11.5 6.25 0.0
			vertex 3.5 6.25 0.0
		endloop
	endfacet
	facet normal 0.0 0.0 1.0
		outer loop
			vertex -11.5 -10.5 13.0
			vertex 3.5 -10.5 13.0
			vertex 3.5 6.25 13.0
		endloop
	endfacet
	facet normal 0.0 0.0 1.0
		outer loop
			vertex -11.5 -10.5 13.0
			vertex 3.5 6.25 13.0
			vertex -11.5 6.25 13.0
		endloop
	endfacet
	facet normal 0.0 -1.0 0.0
		outer loop
			vertex -11.5 -10.5 0.0
			vertex 3.5 -10.5 0.0
			vertex -11.5 -10.5 13.0
		endloop
	endfacet
	facet normal 0.0 -1.0 0.0
		outer loop
			vertex -11.5 -10.5 13.0
			vertex 3.5 -10.5 0.0
			vertex 3.5 -10.5 13.0
		endloop
	endfacet
	facet normal 0.0 1.0 0.0
		outer loop
			vertex -11.5 6.25 0.0
			vertex -11.5 6.25 13.0
			vertex 3.5 6.25 0.0
		endloop
	endfacet
	facet normal 0.0 1.0 0.0
		outer loop
			vertex -11.5 6.25 13.0
			vertex 3.5 6.25 13.0
			vertex 3.5 6.25 0.0
		endloop
	endfacet
	facet normal -1.0 0.0 0.0
		outer loop
			vertex -11.5 -10.5 0.0
			vertex -11.5 6.25 13.0
			vertex -11.5 6.25 0.0
		endloop
	endfacet
	facet normal -1.0 0.0 0.0
		outer loop
			vertex -11.5 -10.5 0.0
			vertex -11.5 -10.5 13.0
			vertex -11.5 6.25 13.0
		endloop
	endfacet
	facet normal 1.0 0.0 0.0
		outer loop
			vertex 3.5 -10.5 0.0
			vertex 3.5 6.25 0.0
			vertex 3.5 6.25 13.0
		endloop
	endfacet
	facet normal 1.0 0.0 0.0
		outer loop
			vertex 3.5 -10.5 0.0
			vertex 3.5 6.25 13.0
			vertex 3.5 -10.5 13.0
		endloop
	endfacet
	facet normal 0.0 0.0 -1.0
		outer loop
			vertex -7.5 -6.5 8.0
			vertex -0.5 2.25 8.0
			vertex -0.5 -6.5 8.0
		endloop
	endfacet
	facet normal 0.0 0.0 -1.0
		outer loop
			vertex -7.5 -6.5 8.0
			vertex -7.5 2.25 8.0
			vertex -0.5 2.25 8.0
		endloop
	endfacet
	facet normal 0.0 0.0 1.0
		outer loop
			vertex -7.5 -6.5 13.0
			vertex -0.5 -6.5 13.0
			vertex -0.5 2.25 13.0
		endloop
	endfacet
	facet normal 0.0 0.0 1.0
		outer loop
			vertex -7.5 -6.5 13.0
			vertex -0.5 2.25 13.0
			vertex -7.5 2.25 13.0
		endloop
	endfacet
	facet normal 0.0 -1.0 0.0
		outer loop
			vertex -7.5 -6.5 8.0
			vertex -0.5 -6.5 8.0
			vertex -7.5 -6.5 13.0
		endloop
	endfacet
	facet normal 0.0 -1.0 0.0
		outer loop
			vertex -7.5 -6.5 13.0
			vertex -0.5 -6.5 8.0
			vertex -0.5 -6.5 13.0
		endloop
	endfacet
	facet normal 0.0 1.0 0.0
		outer loop
			vertex -7.5 2.25 8.0
			vertex -7.5 2.25 13.0
			vertex -0.5 2.25 8.0
		endloop
	endfacet
	facet normal 0.0 1.0 0.0
		outer loop
			vertex -7.5 2.25 13.0
			vertex -0.5 2.25 13.0
			vertex -0.5 2.25 8.0
		endloop
	endfacet
	facet normal -1.0 0.0 0.0
		outer loop
			vertex -7.5 -6.5 8.0
			vertex -7.5 2.25 13.0
			vertex -7.5 2.25 8.0
		endloop
	endfacet
	facet normal -1.0 0.0 0.0
		outer loop
			vertex -7.5 -6.5 8.0
			vertex -7.5 -6.5 13.0
			vertex -7.5 2.25 13.0
		endloop
	endfacet
	facet normal 1.0 0.0 0.0
		outer loop
			vertex -0.5 -6.5 8.0
			vertex -0.5 2.25 8.0
			vertex -0.5 2.25 13.0
		endloop
	endfacet
	facet normal 1.0 0.0 0.0
		outer loop
			vertex -0.5 -6.5 8.0
			vertex -0.5 2.25 13.0
			vertex -0.5 -6.5 13.0
		endloop
	endfacet
	facet normal 0.0 0.0 -1.0
		outer loop
			vertex -18.5 1.5 13.0
			vertex -10.5 3.5 13.0
			vertex -10.5 1.5 13.0
		endloop
	endfacet
	facet normal 0.0 0.0 -1.0
		outer loop
			vertex -18.5 1.5 13.0
			vertex -18.5 3.5 13.0
			vertex -10.5 3.5 13.0
		endloop
	endfacet
	facet normal 0.0 0.0 1.0
		outer loop
			vertex -18.5 1.5 14.0
			vertex -10.5 1.5 14.0
			vertex -10.5 3.5 14.0
		endloop
	endfacet
	facet normal 0.0 0.0 1.0
		outer loop
			vertex -18.5 1.5 14.0
			vertex -10.5 3.5 14.0
			vertex -18.5 3.5 14.0
		endloop
	endfacet
	facet normal 0.0 -1.0 0.0
		outer loop
			vertex -18.5 1.5 13.0
			vertex -10.5 1.5 13.0
			vertex -18.5 1.5 14.0
		endloop
	endfacet
	facet normal 0.0 -1.0 0.0
		outer loop
			vertex -18.5 1.5 14.0
			vertex -10.5 1.5 13.0
			vertex -10.5 1.5 14.0
		endloop
	endfacet
	facet normal 0.0 1.0 0.0
		outer loop
			vertex -18.5 3.5 13.0
			vertex -18.5 3.5 14.0
			vertex -10.5 3.5 13.0
		endloop
	endfacet
	facet normal 0.0 1.0 0.0
		outer loop
			vertex -18.5 3.5 14.0
			vertex -10.5 3.5 14.0
			vertex -10.5 3.5 13.0
		endloop
	endfacet
	facet normal -1.0 0.0 0.0
		outer loop
			vertex -18.5 1.5 13.0
			vertex -18.5 3.5 14.0
			vertex -18.5 3.5 13.0
		endloop
	endfacet
	facet normal -1.0 0.0 0.0
		outer loop
			vertex -18.5 1.5 13.0
			vertex -18.5 1.5 14.0
			vertex -18.5 3.5 14.0
		endloop
	endfacet
	facet normal 1.0 0.0 0.0
		outer loop
			vertex -10.5 1.5 13.0
			vertex -10.5 3.5 13.0
			vertex -10.5 3.5 14.0
		endloop
	endfacet
	facet normal 1.0 0.0 0.0
		outer loop
			vertex -10.5 1.5 13.0
			vertex -10.5 3.5 14.0
			vertex -10.5 1.5 14.0
		endloop
	endfacet
	facet normal 0.0 0.0 -1.0
		outer loop
			vertex -6.0 -31.0 16.5
			vertex -3.0 -15.0 16.5
			vertex -3.0 -31.0 16.5
		endloop
	endfacet
	facet normal 0.0 0.0 -1.0
		outer loop
			vertex -6.0 -31.0 16.5
			vertex -6.0 -15.0 16.5
			vertex -3.0 -15.0 16.5
		endloop
	endfacet
	facet normal 0.0 0.0 1.0
		outer loop
			vertex -6.0 -31.0 19.15
			vertex -3.0 -31.0 19.15
			vertex -3.0 -15.0 19.15
		endloop
	endfacet
	facet normal 0.0 0.0 1.0
		outer loop
			vertex -6.0 -31.0 19.15
			vertex -3.0 -15.0 19.15
			vertex -6.0 -15.0 19.15
		endloop
	endfacet
	facet normal 0.0 -1.0 0.0
		outer loop
			vertex -6.0 -31.0 16.5
			vertex -3.0 -31.0 16.5
			vertex -6.0 -31.0 19.15
		endloop
	endfacet
	facet normal 0.0 -1.0 0.0
		outer loop
			vertex -6.0 -31.0 19.15
			vertex -3.0 -31.0 16.5
			vertex -3.0 -31.0 19.15
		endloop
	endfacet
	facet normal 0.0 1.0 0.0
		outer loop
			vertex -6.0 -15.0 16.5
			vertex -6.0 -15.0 19.15
			vertex -3.0 -15.0 16.5
		endloop
	endfacet
	facet normal 0.0 1.0 0.0
		outer loop
			vertex -6.0 -15.0 19.15
			vertex -3.0 -15.0 19.15
			vertex -3.0 -15.0 16.5
		endloop
	endfacet
	facet normal -1.0 0.0 0.0
		outer loop
			vertex -6.0 -31.0 16.5
			vertex -6.0 -15.0 19.15
			vertex -6.0 -15.0 16.5
		endloop
	endfacet
	facet normal -1.0 0.0 0.0
		outer loop
			vertex -6.0 -31.0 16.5
			vertex -6.0 -31.0 19.15
			vertex -6.0 -15.0 19.15
		endloop
	endfacet
	facet normal 1.0 0.0 0.0
		outer loop
			vertex -3.0 -31.0 16.5
			vertex -3.0 -15.0 16.5
			vertex -3.0 -15.0 19.15
		endloop
	endfacet
	facet normal 1.0 0.0 0.0
		outer loop
			vertex -3.0 -31.0 16.5
			vertex -3.0 -15.0 19.15
			vertex -3.0 -31.0 19.15
		endloop
	endfacet
	facet normal 0.0 0.0 -1.0
		outer loop
			vertex -6.0 -4.0 16.5
			vertex 14.5 -1.0 16.5
			vertex 14.5 -4.0 16.5
		endloop
	endfacet
	facet normal 0.0 0.0 -1.0
		outer loop
			vertex -6.0 -4.0 16.5
			vertex -6.0 -1.0 16.5
			vertex 14.5 -1.0 16.5
		endloop
	endfacet
	facet normal 0.0 0.0 1.0
		outer loop
			vertex -6.0 -4.0 19.15
			vertex 14.5 -4.0 19.15
			vertex 14.5 -1.0 19.15
		endloop
	endfacet
	facet normal 0.0 0.0 1.0
		outer loop
			vertex -6.0 -4.0 19.15
			vertex 14.5 -1.0 19.15
			vertex -6.0 -1.0 19.15
		endloop
	endfacet
	facet normal 0.0 -1.0 0.0
		outer loop
			vertex -6.0 -4.0 16.5
			vertex 14.5 -4.0 16.5
			vertex -6.0 -4.0 19.15
		endloop
	endfacet
	facet normal 0.0 -1.0 0.0
		outer loop
			vertex -6.0 -4.0 19.15
			vertex 14.5 -4.0 16.5
			vertex 14.5 -4.0 19.15
		endloop
	endfacet
	facet normal 0.0 1.0 0.0
		outer loop
			vertex -6.0 -1.0 16.5
			vertex -6.0 -1.0 19.15
			vertex 14.5 -1.0 16.5
		endloop
	endfacet
	facet normal 0.0 1.0 0.0
		outer loop
			vertex -6.0 -1.0 19.15
			vertex 14.5 -1.0 19.15
			vertex 14.5 -1.0 16.5
		endloop
	endfacet
	facet normal -1.0 0.0 0.0
		outer loop
			vertex -6.0 -4.0 16.5
			vertex -6.0 -1.0 19.15
			vertex -6.0 -1.0 16.5
		endloop
	endfacet
	facet normal -1.0 0.0 0.0
		outer loop
			vertex -6.0 -4.0 16.5
			vertex -6.0 -4.0 19.15
			vertex -6.0 -1.0 19.15
		endloop
	endfacet
	facet normal 1.0 0.0 0.0
		outer loop
			vertex 14.5 -4.0 16.5
			vertex 14.5 -1.0 16.5
			vertex 14.5 -1.0 19.15
		endloop
	endfacet
	facet normal 1.0 0.0 0.0
		outer loop
			vertex 14.5 -4.0 16.5
			vertex 14.5 -1.0 19.15
			vertex 14.5 -4.0 19.15
		endloop
	endfacet
	facet normal 0.0 0.0 -1.0
		outer loop
			vertex 11.5 6.0 16.5
			vertex 14.5 9.5 16.5
			vertex 14.5 6.0 16.5
		endloop
	endfacet
	facet normal 0.0 0.0 -1.0
		outer loop
			vertex 11.5 6.0 16.5
			vertex 11.5 9.5 16.5
			vertex 14.5 9.5 16.5
		endloop
	endfacet
	facet normal 0.0 0.0 1.0
		outer loop
			vertex 11.5 6.0 19.15
			vertex 14.5 6.0 19.15
			vertex 14.5 9.5 19.15
		endloop
	endfacet
	facet normal 0.0 0.0 1.0
		outer loop
			vertex 11.5 6.0 19.15
			vertex 14.5 9.5 19.15
			vertex 11.5 9.5 19.15
		endloop
	endfacet
	facet normal 0.0 -1.0 0.0
		outer loop
			vertex 11.5 6.0 16.5
			vertex 14.5 6.0 16.5
			vertex 11.5 6.0 19.15
		endloop
	endfacet
	facet normal 0.0 -1.0 0.0
		outer loop
			vertex 11.5 6.0 19.15
			vertex 14.5 6.0 16.5
			vertex 14.5 6.0 19.15
		endloop
	endfacet
	facet normal 0.0 1.0 0.0
		outer loop
			vertex 11.5 9.5 16.5
			vertex 11.5 9.5 19.15
			vertex 14.5 9.5 16.5
		endloop
	endfacet
	facet normal 0.0 1.0 0.0
		outer loop
			vertex 11.5 9.5 19.15
			vertex 14.5 9.5 19.15
			vertex 14.5 9.5 16.5
		endloop
	endfacet
	facet normal -1.0 0.0 0.0
		outer loop
			vertex 11.5 6.0 16.5
			vertex 11.5 9.5 19.15
			vertex 11.5 9.5 16.5
		endloop
	endfacet
	facet normal -1.0 0.0 0.0
		outer loop
			vertex 11.5 6.0 16.5
			vertex 11.5 6.0 19.15
			vertex 11.5 9.5 19.15
		endloop
	endfacet
	facet normal 1.0 0.0 0.0
		outer loop
			vertex 14.5 6.0 16.5
			vertex 14.5 9.5 16.5
			vertex 14.5 9.5 19.15
		endloop
	endfacet
	facet normal 1.0 0.0 0.0
		outer loop
			vertex 14.5 6.0 16.5
			vertex 14.5 9.5 19.15
			vertex 14.5 6.0 19.15
		endloop
	endfacet
	facet normal 0.0 0.0 -1.0
		outer loop
			vertex -6.5 5.5 16.5
			vertex 15.0 9.5 16.5
			vertex 15.0 5.5 16.5
		endloop
	endfacet
	facet normal 0.0 0.0 -1.0
		outer loop
			vertex -6.5 5.5 16.5
			vertex -6.5 9.5 16.5
			vertex 15.0 9.5 16.5
		endloop
	endfacet
	facet normal 0.0 0.0 1.0
		outer loop
			vertex -6.5 5.5 19.15
			vertex 15.0 5.5 19.15
			vertex 15.0 9.5 19.15
		endloop
	endfacet
	facet normal 0.0 0.0 1.0
		outer loop
			vertex -6.5 5.5 19.15
			vertex 15.0 9.5 19.15
			vertex -6.5 9.5 19.15
		endloop
	endfacet
	facet normal 0.0 -1.0 0.0
		outer loop
			vertex -6.5 5.5 16.5
			vertex 15.0 5.5 16.5
			vertex -6.5 5.5 19.15
		endloop
	endfacet
	facet normal 0.0 -1.0 0.0
		outer loop
			vertex -6.5 5.5 19.15
			vertex 15.0 5.5 16.5
			vertex 15.0 5.5 19.15
		endloop
	endfacet
	facet normal 0.0 1.0 0.0
		outer loop
			vertex -6.5 9.5 16.5
			vertex -6.5 9.5 19.15
			vertex 15.0 9.5 16.5
		endloop
	endfacet
	facet normal 0.0 1.0 0.0
		outer loop
			vertex -6.5 9.5 19.15
			vertex 15.0 9.5 19.15
			vertex 15.0 9.5 16.5
		endloop
	endfacet
	facet normal -1.0 0.0 0.0
		outer loop
			vertex -6.5 5.5 16.5
			vertex -6.5 9.5 19.15
			vertex -6.5 9.5 16.5
		endloop
	endfacet
	facet normal -1.0 0.0 0.0
		outer loop
			vertex -6.5 5.5 16.5
			vertex -6.5 5.5 19.15
			vertex -6.5 9.5 19.15
		endloop
	endfacet
	facet normal 1.0 0.0 0.0
		outer loop
			vertex 15.0 5.5 16.5
			vertex 15.0 9.5 16.5
			vertex 15.0 9.5 19.15
		endloop
	endfacet
	facet normal 1.0 0.0 0.0
		outer loop
			vertex 15.0 5.5 16.5
			vertex 15.0 9.5 19.15
			vertex 15.0 5.5 19.15
		endloop
	endfacet
	facet normal 0.0 0.0 -1.0
		outer loop
			vertex -27.5 1.0 16.5
			vertex -16.0 4.0 16.5
			vertex -16.0 1.0 16.5
		endloop
	endfacet
	facet normal 0.0 0.0 -1.0
		outer loop
			vertex -27.5 1.0 16.5
			vertex -27.5 4.0 16.5
			vertex -16.0 4.0 16.5
		endloop
	endfacet
	facet normal 0.0 0.0 1.0
		outer loop
			vertex -27.5 1.0 19.15
			vertex -16.0 1.0 19.15
			vertex -16.0 4.0 19.15
		endloop
	endfacet
	facet normal 0.0 0.0 1.0
		outer loop
			vertex -27.5 1.0 19.15
			vertex -16.0 4.0 19.15
			vertex -27.5 4.0 19.15
		endloop
	endfacet
	facet normal 0.0 -1.0 0.0
		outer loop
			vertex -27.5 1.0 16.5
			vertex -16.0 1.0 16.5
			vertex -27.5 1.0 19.15
		endloop
	endfacet
	facet normal 0.0 -1.0 0.0
		outer loop
			vertex -27.5 1.0 19.15
			vertex -16.0 1.0 16.5
			vertex -16.0 1.0 19.15
		endloop
	endfacet
	facet normal 0.0 1.0 0.0
		outer loop
			vertex -27.5 4.0 16.5
			vertex -27.5 4.0 19.15
			vertex -16.0 4.0 16.5
		endloop
	endfacet
	facet normal 0.0 1.0 0.0
		outer loop
			vertex -27.5 4.0 19.15
			vertex -16.0 4.0 19.15
			vertex -16.0 4.0 16.5
		endloop
	endfacet
	facet normal -1.0 0.0 0.0
		outer loop
			vertex -27.5 1.0 16.5
			vertex -27.5 4.0 19.15
			vertex -27.5 4.0 16.5
		endloop
	endfacet
	facet normal -1.0 0.0 0.0
		outer loop
			vertex -27.5 1.0 16.5
			vertex -27.5 1.0 19.15
			vertex -27.5 4.0 19.15
		endloop
	endfacet
	facet normal 1.0 0.0 0.0
		outer loop
			vertex -16.0 1.0 16.5
			vertex -16.0 4.0 16.5
			vertex -16.0 4.0 19.15
		endloop
	endfacet
	facet normal 1.0 0.0 0.0
		outer loop
			vertex -16.0 1.0 16.5
			vertex -16.0 4.0 19.15
			vertex -16.0 1.0 19.15
		endloop
	endfacet
endsolid
