solid electric_padframe_esd
	facet normal 0.0 0.0 -1.0
		outer loop
			vertex -169.0 373.0 16.5
			vertex 334.0 423.0 16.5
			vertex 334.0 373.0 16.5
		endloop
	endfacet
	facet normal 0.0 0.0 -1.0
		outer loop
			vertex -169.0 373.0 16.5
			vertex -169.0 423.0 16.5
			vertex 334.0 423.0 16.5
		endloop
	endfacet
	facet normal 0.0 0.0 1.0
		outer loop
			vertex -169.0 373.0 19.15
			vertex 334.0 373.0 19.15
			vertex 334.0 423.0 19.15
		endloop
	endfacet
	facet normal 0.0 0.0 1.0
		outer loop
			vertex -169.0 373.0 19.15
			vertex 334.0 423.0 19.15
			vertex -169.0 423.0 19.15
		endloop
	endfacet
	facet normal 0.0 -1.0 0.0
		outer loop
			vertex -169.0 373.0 16.5
			vertex 334.0 373.0 16.5
			vertex -169.0 373.0 19.15
		endloop
	endfacet
	facet normal 0.0 -1.0 0.0
		outer loop
			vertex -169.0 373.0 19.15
			vertex 334.0 373.0 16.5
			vertex 334.0 373.0 19.15
		endloop
	endfacet
	facet normal 0.0 1.0 0.0
		outer loop
			vertex -169.0 423.0 16.5
			vertex -169.0 423.0 19.15
			vertex 334.0 423.0 16.5
		endloop
	endfacet
	facet normal 0.0 1.0 0.0
		outer loop
			vertex -169.0 423.0 19.15
			vertex 334.0 423.0 19.15
			vertex 334.0 423.0 16.5
		endloop
	endfacet
	facet normal -1.0 0.0 0.0
		outer loop
			vertex -169.0 373.0 16.5
			vertex -169.0 423.0 19.15
			vertex -169.0 423.0 16.5
		endloop
	endfacet
	facet normal -1.0 0.0 0.0
		outer loop
			vertex -169.0 373.0 16.5
			vertex -169.0 373.0 19.15
			vertex -169.0 423.0 19.15
		endloop
	endfacet
	facet normal 1.0 0.0 0.0
		outer loop
			vertex 334.0 373.0 16.5
			vertex 334.0 423.0 16.5
			vertex 334.0 423.0 19.15
		endloop
	endfacet
	facet normal 1.0 0.0 0.0
		outer loop
			vertex 334.0 373.0 16.5
			vertex 334.0 423.0 19.15
			vertex 334.0 373.0 19.15
		endloop
	endfacet
	facet normal 0.0 0.0 -1.0
		outer loop
			vertex -169.0 426.0 16.5
			vertex 334.0 476.0 16.5
			vertex 334.0 426.0 16.5
		endloop
	endfacet
	facet normal 0.0 0.0 -1.0
		outer loop
			vertex -169.0 426.0 16.5
			vertex -169.0 476.0 16.5
			vertex 334.0 476.0 16.5
		endloop
	endfacet
	facet normal 0.0 0.0 1.0
		outer loop
			vertex -169.0 426.0 19.15
			vertex 334.0 426.0 19.15
			vertex 334.0 476.0 19.15
		endloop
	endfacet
	facet normal 0.0 0.0 1.0
		outer loop
			vertex -169.0 426.0 19.15
			vertex 334.0 476.0 19.15
			vertex -169.0 476.0 19.15
		endloop
	endfacet
	facet normal 0.0 -1.0 0.0
		outer loop
			vertex -169.0 426.0 16.5
			vertex 334.0 426.0 16.5
			vertex -169.0 426.0 19.15
		endloop
	endfacet
	facet normal 0.0 -1.0 0.0
		outer loop
			vertex -169.0 426.0 19.15
			vertex 334.0 426.0 16.5
			vertex 334.0 426.0 19.15
		endloop
	endfacet
	facet normal 0.0 1.0 0.0
		outer loop
			vertex -169.0 476.0 16.5
			vertex -169.0 476.0 19.15
			vertex 334.0 476.0 16.5
		endloop
	endfacet
	facet normal 0.0 1.0 0.0
		outer loop
			vertex -169.0 476.0 19.15
			vertex 334.0 476.0 19.15
			vertex 334.0 476.0 16.5
		endloop
	endfacet
	facet normal -1.0 0.0 0.0
		outer loop
			vertex -169.0 426.0 16.5
			vertex -169.0 476.0 19.15
			vertex -169.0 476.0 16.5
		endloop
	endfacet
	facet normal -1.0 0.0 0.0
		outer loop
			vertex -169.0 426.0 16.5
			vertex -169.0 426.0 19.15
			vertex -169.0 476.0 19.15
		endloop
	endfacet
	facet normal 1.0 0.0 0.0
		outer loop
			vertex 334.0 426.0 16.5
			vertex 334.0 476.0 16.5
			vertex 334.0 476.0 19.15
		endloop
	endfacet
	facet normal 1.0 0.0 0.0
		outer loop
			vertex 334.0 426.0 16.5
			vertex 334.0 476.0 19.15
			vertex 334.0 426.0 19.15
		endloop
	endfacet
	facet normal 0.0 0.0 -1.0
		outer loop
			vertex 375.0 -335.0 16.5
			vertex 425.0 168.0 16.5
			vertex 425.0 -335.0 16.5
		endloop
	endfacet
	facet normal 0.0 0.0 -1.0
		outer loop
			vertex 375.0 -335.0 16.5
			vertex 375.0 168.0 16.5
			vertex 425.0 168.0 16.5
		endloop
	endfacet
	facet normal 0.0 0.0 1.0
		outer loop
			vertex 375.0 -335.0 19.15
			vertex 425.0 -335.0 19.15
			vertex 425.0 168.0 19.15
		endloop
	endfacet
	facet normal 0.0 0.0 1.0
		outer loop
			vertex 375.0 -335.0 19.15
			vertex 425.0 168.0 19.15
			vertex 375.0 168.0 19.15
		endloop
	endfacet
	facet normal 0.0 -1.0 0.0
		outer loop
			vertex 375.0 -335.0 16.5
			vertex 425.0 -335.0 16.5
			vertex 375.0 -335.0 19.15
		endloop
	endfacet
	facet normal 0.0 -1.0 0.0
		outer loop
			vertex 375.0 -335.0 19.15
			vertex 425.0 -335.0 16.5
			vertex 425.0 -335.0 19.15
		endloop
	endfacet
	facet normal 0.0 1.0 0.0
		outer loop
			vertex 375.0 168.0 16.5
			vertex 375.0 168.0 19.15
			vertex 425.0 168.0 16.5
		endloop
	endfacet
	facet normal 0.0 1.0 0.0
		outer loop
			vertex 375.0 168.0 19.15
			vertex 425.0 168.0 19.15
			vertex 425.0 168.0 16.5
		endloop
	endfacet
	facet normal -1.0 0.0 0.0
		outer loop
			vertex 375.0 -335.0 16.5
			vertex 375.0 168.0 19.15
			vertex 375.0 168.0 16.5
		endloop
	endfacet
	facet normal -1.0 0.0 0.0
		outer loop
			vertex 375.0 -335.0 16.5
			vertex 375.0 -335.0 19.15
			vertex 375.0 168.0 19.15
		endloop
	endfacet
	facet normal 1.0 0.0 0.0
		outer loop
			vertex 425.0 -335.0 16.5
			vertex 425.0 168.0 16.5
			vertex 425.0 168.0 19.15
		endloop
	endfacet
	facet normal 1.0 0.0 0.0
		outer loop
			vertex 425.0 -335.0 16.5
			vertex 425.0 168.0 19.15
			vertex 425.0 -335.0 19.15
		endloop
	endfacet
	facet normal 0.0 0.0 -1.0
		outer loop
			vertex 428.0 -335.0 16.5
			vertex 478.0 168.0 16.5
			vertex 478.0 -335.0 16.5
		endloop
	endfacet
	facet normal 0.0 0.0 -1.0
		outer loop
			vertex 428.0 -335.0 16.5
			vertex 428.0 168.0 16.5
			vertex 478.0 168.0 16.5
		endloop
	endfacet
	facet normal 0.0 0.0 1.0
		outer loop
			vertex 428.0 -335.0 19.15
			vertex 478.0 -335.0 19.15
			vertex 478.0 168.0 19.15
		endloop
	endfacet
	facet normal 0.0 0.0 1.0
		outer loop
			vertex 428.0 -335.0 19.15
			vertex 478.0 168.0 19.15
			vertex 428.0 168.0 19.15
		endloop
	endfacet
	facet normal 0.0 -1.0 0.0
		outer loop
			vertex 428.0 -335.0 16.5
			vertex 478.0 -335.0 16.5
			vertex 428.0 -335.0 19.15
		endloop
	endfacet
	facet normal 0.0 -1.0 0.0
		outer loop
			vertex 428.0 -335.0 19.15
			vertex 478.0 -335.0 16.5
			vertex 478.0 -335.0 19.15
		endloop
	endfacet
	facet normal 0.0 1.0 0.0
		outer loop
			vertex 428.0 168.0 16.5
			vertex 428.0 168.0 19.15
			vertex 478.0 168.0 16.5
		endloop
	endfacet
	facet normal 0.0 1.0 0.0
		outer loop
			vertex 428.0 168.0 19.15
			vertex 478.0 168.0 19.15
			vertex 478.0 168.0 16.5
		endloop
	endfacet
	facet normal -1.0 0.0 0.0
		outer loop
			vertex 428.0 -335.0 16.5
			vertex 428.0 168.0 19.15
			vertex 428.0 168.0 16.5
		endloop
	endfacet
	facet normal -1.0 0.0 0.0
		outer loop
			vertex 428.0 -335.0 16.5
			vertex 428.0 -335.0 19.15
			vertex 428.0 168.0 19.15
		endloop
	endfacet
	facet normal 1.0 0.0 0.0
		outer loop
			vertex 478.0 -335.0 16.5
			vertex 478.0 168.0 16.5
			vertex 478.0 168.0 19.15
		endloop
	endfacet
	facet normal 1.0 0.0 0.0
		outer loop
			vertex 478.0 -335.0 16.5
			vertex 478.0 168.0 19.15
			vertex 478.0 -335.0 19.15
		endloop
	endfacet
	facet normal 0.0 0.0 -1.0
		outer loop
			vertex 284.0 373.0 16.5
			vertex 425.0 423.0 16.5
			vertex 425.0 373.0 16.5
		endloop
	endfacet
	facet normal 0.0 0.0 -1.0
		outer loop
			vertex 284.0 373.0 16.5
			vertex 284.0 423.0 16.5
			vertex 425.0 423.0 16.5
		endloop
	endfacet
	facet normal 0.0 0.0 1.0
		outer loop
			vertex 284.0 373.0 19.15
			vertex 425.0 373.0 19.15
			vertex 425.0 423.0 19.15
		endloop
	endfacet
	facet normal 0.0 0.0 1.0
		outer loop
			vertex 284.0 373.0 19.15
			vertex 425.0 423.0 19.15
			vertex 284.0 423.0 19.15
		endloop
	endfacet
	facet normal 0.0 -1.0 0.0
		outer loop
			vertex 284.0 373.0 16.5
			vertex 425.0 373.0 16.5
			vertex 284.0 373.0 19.15
		endloop
	endfacet
	facet normal 0.0 -1.0 0.0
		outer loop
			vertex 284.0 373.0 19.15
			vertex 425.0 373.0 16.5
			vertex 425.0 373.0 19.15
		endloop
	endfacet
	facet normal 0.0 1.0 0.0
		outer loop
			vertex 284.0 423.0 16.5
			vertex 284.0 423.0 19.15
			vertex 425.0 423.0 16.5
		endloop
	endfacet
	facet normal 0.0 1.0 0.0
		outer loop
			vertex 284.0 423.0 19.15
			vertex 425.0 423.0 19.15
			vertex 425.0 423.0 16.5
		endloop
	endfacet
	facet normal -1.0 0.0 0.0
		outer loop
			vertex 284.0 373.0 16.5
			vertex 284.0 423.0 19.15
			vertex 284.0 423.0 16.5
		endloop
	endfacet
	facet normal -1.0 0.0 0.0
		outer loop
			vertex 284.0 373.0 16.5
			vertex 284.0 373.0 19.15
			vertex 284.0 423.0 19.15
		endloop
	endfacet
	facet normal 1.0 0.0 0.0
		outer loop
			vertex 425.0 373.0 16.5
			vertex 425.0 423.0 16.5
			vertex 425.0 423.0 19.15
		endloop
	endfacet
	facet normal 1.0 0.0 0.0
		outer loop
			vertex 425.0 373.0 16.5
			vertex 425.0 423.0 19.15
			vertex 425.0 373.0 19.15
		endloop
	endfacet
	facet normal 0.0 0.0 -1.0
		outer loop
			vertex 375.0 118.0 16.5
			vertex 425.0 423.0 16.5
			vertex 425.0 118.0 16.5
		endloop
	endfacet
	facet normal 0.0 0.0 -1.0
		outer loop
			vertex 375.0 118.0 16.5
			vertex 375.0 423.0 16.5
			vertex 425.0 423.0 16.5
		endloop
	endfacet
	facet normal 0.0 0.0 1.0
		outer loop
			vertex 375.0 118.0 19.15
			vertex 425.0 118.0 19.15
			vertex 425.0 423.0 19.15
		endloop
	endfacet
	facet normal 0.0 0.0 1.0
		outer loop
			vertex 375.0 118.0 19.15
			vertex 425.0 423.0 19.15
			vertex 375.0 423.0 19.15
		endloop
	endfacet
	facet normal 0.0 -1.0 0.0
		outer loop
			vertex 375.0 118.0 16.5
			vertex 425.0 118.0 16.5
			vertex 375.0 118.0 19.15
		endloop
	endfacet
	facet normal 0.0 -1.0 0.0
		outer loop
			vertex 375.0 118.0 19.15
			vertex 425.0 118.0 16.5
			vertex 425.0 118.0 19.15
		endloop
	endfacet
	facet normal 0.0 1.0 0.0
		outer loop
			vertex 375.0 423.0 16.5
			vertex 375.0 423.0 19.15
			vertex 425.0 423.0 16.5
		endloop
	endfacet
	facet normal 0.0 1.0 0.0
		outer loop
			vertex 375.0 423.0 19.15
			vertex 425.0 423.0 19.15
			vertex 425.0 423.0 16.5
		endloop
	endfacet
	facet normal -1.0 0.0 0.0
		outer loop
			vertex 375.0 118.0 16.5
			vertex 375.0 423.0 19.15
			vertex 375.0 423.0 16.5
		endloop
	endfacet
	facet normal -1.0 0.0 0.0
		outer loop
			vertex 375.0 118.0 16.5
			vertex 375.0 118.0 19.15
			vertex 375.0 423.0 19.15
		endloop
	endfacet
	facet normal 1.0 0.0 0.0
		outer loop
			vertex 425.0 118.0 16.5
			vertex 425.0 423.0 16.5
			vertex 425.0 423.0 19.15
		endloop
	endfacet
	facet normal 1.0 0.0 0.0
		outer loop
			vertex 425.0 118.0 16.5
			vertex 425.0 423.0 19.15
			vertex 425.0 118.0 19.15
		endloop
	endfacet
	facet normal 0.0 0.0 -1.0
		outer loop
			vertex 284.0 426.0 16.5
			vertex 453.0 476.0 16.5
			vertex 453.0 426.0 16.5
		endloop
	endfacet
	facet normal 0.0 0.0 -1.0
		outer loop
			vertex 284.0 426.0 16.5
			vertex 284.0 476.0 16.5
			vertex 453.0 476.0 16.5
		endloop
	endfacet
	facet normal 0.0 0.0 1.0
		outer loop
			vertex 284.0 426.0 19.15
			vertex 453.0 426.0 19.15
			vertex 453.0 476.0 19.15
		endloop
	endfacet
	facet normal 0.0 0.0 1.0
		outer loop
			vertex 284.0 426.0 19.15
			vertex 453.0 476.0 19.15
			vertex 284.0 476.0 19.15
		endloop
	endfacet
	facet normal 0.0 -1.0 0.0
		outer loop
			vertex 284.0 426.0 16.5
			vertex 453.0 426.0 16.5
			vertex 284.0 426.0 19.15
		endloop
	endfacet
	facet normal 0.0 -1.0 0.0
		outer loop
			vertex 284.0 426.0 19.15
			vertex 453.0 426.0 16.5
			vertex 453.0 426.0 19.15
		endloop
	endfacet
	facet normal 0.0 1.0 0.0
		outer loop
			vertex 284.0 476.0 16.5
			vertex 284.0 476.0 19.15
			vertex 453.0 476.0 16.5
		endloop
	endfacet
	facet normal 0.0 1.0 0.0
		outer loop
			vertex 284.0 476.0 19.15
			vertex 453.0 476.0 19.15
			vertex 453.0 476.0 16.5
		endloop
	endfacet
	facet normal -1.0 0.0 0.0
		outer loop
			vertex 284.0 426.0 16.5
			vertex 284.0 476.0 19.15
			vertex 284.0 476.0 16.5
		endloop
	endfacet
	facet normal -1.0 0.0 0.0
		outer loop
			vertex 284.0 426.0 16.5
			vertex 284.0 426.0 19.15
			vertex 284.0 476.0 19.15
		endloop
	endfacet
	facet normal 1.0 0.0 0.0
		outer loop
			vertex 453.0 426.0 16.5
			vertex 453.0 476.0 16.5
			vertex 453.0 476.0 19.15
		endloop
	endfacet
	facet normal 1.0 0.0 0.0
		outer loop
			vertex 453.0 426.0 16.5
			vertex 453.0 476.0 19.15
			vertex 453.0 426.0 19.15
		endloop
	endfacet
	facet normal 0.0 0.0 -1.0
		outer loop
			vertex 428.0 118.0 16.5
			vertex 478.0 476.0 16.5
			vertex 478.0 118.0 16.5
		endloop
	endfacet
	facet normal 0.0 0.0 -1.0
		outer loop
			vertex 428.0 118.0 16.5
			vertex 428.0 476.0 16.5
			vertex 478.0 476.0 16.5
		endloop
	endfacet
	facet normal 0.0 0.0 1.0
		outer loop
			vertex 428.0 118.0 19.15
			vertex 478.0 118.0 19.15
			vertex 478.0 476.0 19.15
		endloop
	endfacet
	facet normal 0.0 0.0 1.0
		outer loop
			vertex 428.0 118.0 19.15
			vertex 478.0 476.0 19.15
			vertex 428.0 476.0 19.15
		endloop
	endfacet
	facet normal 0.0 -1.0 0.0
		outer loop
			vertex 428.0 118.0 16.5
			vertex 478.0 118.0 16.5
			vertex 428.0 118.0 19.15
		endloop
	endfacet
	facet normal 0.0 -1.0 0.0
		outer loop
			vertex 428.0 118.0 19.15
			vertex 478.0 118.0 16.5
			vertex 478.0 118.0 19.15
		endloop
	endfacet
	facet normal 0.0 1.0 0.0
		outer loop
			vertex 428.0 476.0 16.5
			vertex 428.0 476.0 19.15
			vertex 478.0 476.0 16.5
		endloop
	endfacet
	facet normal 0.0 1.0 0.0
		outer loop
			vertex 428.0 476.0 19.15
			vertex 478.0 476.0 19.15
			vertex 478.0 476.0 16.5
		endloop
	endfacet
	facet normal -1.0 0.0 0.0
		outer loop
			vertex 428.0 118.0 16.5
			vertex 428.0 476.0 19.15
			vertex 428.0 476.0 16.5
		endloop
	endfacet
	facet normal -1.0 0.0 0.0
		outer loop
			vertex 428.0 118.0 16.5
			vertex 428.0 118.0 19.15
			vertex 428.0 476.0 19.15
		endloop
	endfacet
	facet normal 1.0 0.0 0.0
		outer loop
			vertex 478.0 118.0 16.5
			vertex 478.0 476.0 16.5
			vertex 478.0 476.0 19.15
		endloop
	endfacet
	facet normal 1.0 0.0 0.0
		outer loop
			vertex 478.0 118.0 16.5
			vertex 478.0 476.0 19.15
			vertex 478.0 118.0 19.15
		endloop
	endfacet
	facet normal 0.0 0.0 -1.0
		outer loop
			vertex -334.0 -424.5 16.5
			vertex 169.0 -374.5 16.5
			vertex 169.0 -424.5 16.5
		endloop
	endfacet
	facet normal 0.0 0.0 -1.0
		outer loop
			vertex -334.0 -424.5 16.5
			vertex -334.0 -374.5 16.5
			vertex 169.0 -374.5 16.5
		endloop
	endfacet
	facet normal 0.0 0.0 1.0
		outer loop
			vertex -334.0 -424.5 19.15
			vertex 169.0 -424.5 19.15
			vertex 169.0 -374.5 19.15
		endloop
	endfacet
	facet normal 0.0 0.0 1.0
		outer loop
			vertex -334.0 -424.5 19.15
			vertex 169.0 -374.5 19.15
			vertex -334.0 -374.5 19.15
		endloop
	endfacet
	facet normal 0.0 -1.0 0.0
		outer loop
			vertex -334.0 -424.5 16.5
			vertex 169.0 -424.5 16.5
			vertex -334.0 -424.5 19.15
		endloop
	endfacet
	facet normal 0.0 -1.0 0.0
		outer loop
			vertex -334.0 -424.5 19.15
			vertex 169.0 -424.5 16.5
			vertex 169.0 -424.5 19.15
		endloop
	endfacet
	facet normal 0.0 1.0 0.0
		outer loop
			vertex -334.0 -374.5 16.5
			vertex -334.0 -374.5 19.15
			vertex 169.0 -374.5 16.5
		endloop
	endfacet
	facet normal 0.0 1.0 0.0
		outer loop
			vertex -334.0 -374.5 19.15
			vertex 169.0 -374.5 19.15
			vertex 169.0 -374.5 16.5
		endloop
	endfacet
	facet normal -1.0 0.0 0.0
		outer loop
			vertex -334.0 -424.5 16.5
			vertex -334.0 -374.5 19.15
			vertex -334.0 -374.5 16.5
		endloop
	endfacet
	facet normal -1.0 0.0 0.0
		outer loop
			vertex -334.0 -424.5 16.5
			vertex -334.0 -424.5 19.15
			vertex -334.0 -374.5 19.15
		endloop
	endfacet
	facet normal 1.0 0.0 0.0
		outer loop
			vertex 169.0 -424.5 16.5
			vertex 169.0 -374.5 16.5
			vertex 169.0 -374.5 19.15
		endloop
	endfacet
	facet normal 1.0 0.0 0.0
		outer loop
			vertex 169.0 -424.5 16.5
			vertex 169.0 -374.5 19.15
			vertex 169.0 -424.5 19.15
		endloop
	endfacet
	facet normal 0.0 0.0 -1.0
		outer loop
			vertex -334.0 -477.5 16.5
			vertex 169.0 -427.5 16.5
			vertex 169.0 -477.5 16.5
		endloop
	endfacet
	facet normal 0.0 0.0 -1.0
		outer loop
			vertex -334.0 -477.5 16.5
			vertex -334.0 -427.5 16.5
			vertex 169.0 -427.5 16.5
		endloop
	endfacet
	facet normal 0.0 0.0 1.0
		outer loop
			vertex -334.0 -477.5 19.15
			vertex 169.0 -477.5 19.15
			vertex 169.0 -427.5 19.15
		endloop
	endfacet
	facet normal 0.0 0.0 1.0
		outer loop
			vertex -334.0 -477.5 19.15
			vertex 169.0 -427.5 19.15
			vertex -334.0 -427.5 19.15
		endloop
	endfacet
	facet normal 0.0 -1.0 0.0
		outer loop
			vertex -334.0 -477.5 16.5
			vertex 169.0 -477.5 16.5
			vertex -334.0 -477.5 19.15
		endloop
	endfacet
	facet normal 0.0 -1.0 0.0
		outer loop
			vertex -334.0 -477.5 19.15
			vertex 169.0 -477.5 16.5
			vertex 169.0 -477.5 19.15
		endloop
	endfacet
	facet normal 0.0 1.0 0.0
		outer loop
			vertex -334.0 -427.5 16.5
			vertex -334.0 -427.5 19.15
			vertex 169.0 -427.5 16.5
		endloop
	endfacet
	facet normal 0.0 1.0 0.0
		outer loop
			vertex -334.0 -427.5 19.15
			vertex 169.0 -427.5 19.15
			vertex 169.0 -427.5 16.5
		endloop
	endfacet
	facet normal -1.0 0.0 0.0
		outer loop
			vertex -334.0 -477.5 16.5
			vertex -334.0 -427.5 19.15
			vertex -334.0 -427.5 16.5
		endloop
	endfacet
	facet normal -1.0 0.0 0.0
		outer loop
			vertex -334.0 -477.5 16.5
			vertex -334.0 -477.5 19.15
			vertex -334.0 -427.5 19.15
		endloop
	endfacet
	facet normal 1.0 0.0 0.0
		outer loop
			vertex 169.0 -477.5 16.5
			vertex 169.0 -427.5 16.5
			vertex 169.0 -427.5 19.15
		endloop
	endfacet
	facet normal 1.0 0.0 0.0
		outer loop
			vertex 169.0 -477.5 16.5
			vertex 169.0 -427.5 19.15
			vertex 169.0 -477.5 19.15
		endloop
	endfacet
	facet normal 0.0 0.0 -1.0
		outer loop
			vertex 375.0 -399.5 16.5
			vertex 425.0 -285.0 16.5
			vertex 425.0 -399.5 16.5
		endloop
	endfacet
	facet normal 0.0 0.0 -1.0
		outer loop
			vertex 375.0 -399.5 16.5
			vertex 375.0 -285.0 16.5
			vertex 425.0 -285.0 16.5
		endloop
	endfacet
	facet normal 0.0 0.0 1.0
		outer loop
			vertex 375.0 -399.5 19.15
			vertex 425.0 -399.5 19.15
			vertex 425.0 -285.0 19.15
		endloop
	endfacet
	facet normal 0.0 0.0 1.0
		outer loop
			vertex 375.0 -399.5 19.15
			vertex 425.0 -285.0 19.15
			vertex 375.0 -285.0 19.15
		endloop
	endfacet
	facet normal 0.0 -1.0 0.0
		outer loop
			vertex 375.0 -399.5 16.5
			vertex 425.0 -399.5 16.5
			vertex 375.0 -399.5 19.15
		endloop
	endfacet
	facet normal 0.0 -1.0 0.0
		outer loop
			vertex 375.0 -399.5 19.15
			vertex 425.0 -399.5 16.5
			vertex 425.0 -399.5 19.15
		endloop
	endfacet
	facet normal 0.0 1.0 0.0
		outer loop
			vertex 375.0 -285.0 16.5
			vertex 375.0 -285.0 19.15
			vertex 425.0 -285.0 16.5
		endloop
	endfacet
	facet normal 0.0 1.0 0.0
		outer loop
			vertex 375.0 -285.0 19.15
			vertex 425.0 -285.0 19.15
			vertex 425.0 -285.0 16.5
		endloop
	endfacet
	facet normal -1.0 0.0 0.0
		outer loop
			vertex 375.0 -399.5 16.5
			vertex 375.0 -285.0 19.15
			vertex 375.0 -285.0 16.5
		endloop
	endfacet
	facet normal -1.0 0.0 0.0
		outer loop
			vertex 375.0 -399.5 16.5
			vertex 375.0 -399.5 19.15
			vertex 375.0 -285.0 19.15
		endloop
	endfacet
	facet normal 1.0 0.0 0.0
		outer loop
			vertex 425.0 -399.5 16.5
			vertex 425.0 -285.0 16.5
			vertex 425.0 -285.0 19.15
		endloop
	endfacet
	facet normal 1.0 0.0 0.0
		outer loop
			vertex 425.0 -399.5 16.5
			vertex 425.0 -285.0 19.15
			vertex 425.0 -399.5 19.15
		endloop
	endfacet
	facet normal 0.0 0.0 -1.0
		outer loop
			vertex 119.0 -424.5 16.5
			vertex 425.0 -374.5 16.5
			vertex 425.0 -424.5 16.5
		endloop
	endfacet
	facet normal 0.0 0.0 -1.0
		outer loop
			vertex 119.0 -424.5 16.5
			vertex 119.0 -374.5 16.5
			vertex 425.0 -374.5 16.5
		endloop
	endfacet
	facet normal 0.0 0.0 1.0
		outer loop
			vertex 119.0 -424.5 19.15
			vertex 425.0 -424.5 19.15
			vertex 425.0 -374.5 19.15
		endloop
	endfacet
	facet normal 0.0 0.0 1.0
		outer loop
			vertex 119.0 -424.5 19.15
			vertex 425.0 -374.5 19.15
			vertex 119.0 -374.5 19.15
		endloop
	endfacet
	facet normal 0.0 -1.0 0.0
		outer loop
			vertex 119.0 -424.5 16.5
			vertex 425.0 -424.5 16.5
			vertex 119.0 -424.5 19.15
		endloop
	endfacet
	facet normal 0.0 -1.0 0.0
		outer loop
			vertex 119.0 -424.5 19.15
			vertex 425.0 -424.5 16.5
			vertex 425.0 -424.5 19.15
		endloop
	endfacet
	facet normal 0.0 1.0 0.0
		outer loop
			vertex 119.0 -374.5 16.5
			vertex 119.0 -374.5 19.15
			vertex 425.0 -374.5 16.5
		endloop
	endfacet
	facet normal 0.0 1.0 0.0
		outer loop
			vertex 119.0 -374.5 19.15
			vertex 425.0 -374.5 19.15
			vertex 425.0 -374.5 16.5
		endloop
	endfacet
	facet normal -1.0 0.0 0.0
		outer loop
			vertex 119.0 -424.5 16.5
			vertex 119.0 -374.5 19.15
			vertex 119.0 -374.5 16.5
		endloop
	endfacet
	facet normal -1.0 0.0 0.0
		outer loop
			vertex 119.0 -424.5 16.5
			vertex 119.0 -424.5 19.15
			vertex 119.0 -374.5 19.15
		endloop
	endfacet
	facet normal 1.0 0.0 0.0
		outer loop
			vertex 425.0 -424.5 16.5
			vertex 425.0 -374.5 16.5
			vertex 425.0 -374.5 19.15
		endloop
	endfacet
	facet normal 1.0 0.0 0.0
		outer loop
			vertex 425.0 -424.5 16.5
			vertex 425.0 -374.5 19.15
			vertex 425.0 -424.5 19.15
		endloop
	endfacet
	facet normal 0.0 0.0 -1.0
		outer loop
			vertex 428.0 -452.5 16.5
			vertex 478.0 -285.0 16.5
			vertex 478.0 -452.5 16.5
		endloop
	endfacet
	facet normal 0.0 0.0 -1.0
		outer loop
			vertex 428.0 -452.5 16.5
			vertex 428.0 -285.0 16.5
			vertex 478.0 -285.0 16.5
		endloop
	endfacet
	facet normal 0.0 0.0 1.0
		outer loop
			vertex 428.0 -452.5 19.15
			vertex 478.0 -452.5 19.15
			vertex 478.0 -285.0 19.15
		endloop
	endfacet
	facet normal 0.0 0.0 1.0
		outer loop
			vertex 428.0 -452.5 19.15
			vertex 478.0 -285.0 19.15
			vertex 428.0 -285.0 19.15
		endloop
	endfacet
	facet normal 0.0 -1.0 0.0
		outer loop
			vertex 428.0 -452.5 16.5
			vertex 478.0 -452.5 16.5
			vertex 428.0 -452.5 19.15
		endloop
	endfacet
	facet normal 0.0 -1.0 0.0
		outer loop
			vertex 428.0 -452.5 19.15
			vertex 478.0 -452.5 16.5
			vertex 478.0 -452.5 19.15
		endloop
	endfacet
	facet normal 0.0 1.0 0.0
		outer loop
			vertex 428.0 -285.0 16.5
			vertex 428.0 -285.0 19.15
			vertex 478.0 -285.0 16.5
		endloop
	endfacet
	facet normal 0.0 1.0 0.0
		outer loop
			vertex 428.0 -285.0 19.15
			vertex 478.0 -285.0 19.15
			vertex 478.0 -285.0 16.5
		endloop
	endfacet
	facet normal -1.0 0.0 0.0
		outer loop
			vertex 428.0 -452.5 16.5
			vertex 428.0 -285.0 19.15
			vertex 428.0 -285.0 16.5
		endloop
	endfacet
	facet normal -1.0 0.0 0.0
		outer loop
			vertex 428.0 -452.5 16.5
			vertex 428.0 -452.5 19.15
			vertex 428.0 -285.0 19.15
		endloop
	endfacet
	facet normal 1.0 0.0 0.0
		outer loop
			vertex 478.0 -452.5 16.5
			vertex 478.0 -285.0 16.5
			vertex 478.0 -285.0 19.15
		endloop
	endfacet
	facet normal 1.0 0.0 0.0
		outer loop
			vertex 478.0 -452.5 16.5
			vertex 478.0 -285.0 19.15
			vertex 478.0 -452.5 19.15
		endloop
	endfacet
	facet normal 0.0 0.0 -1.0
		outer loop
			vertex 119.0 -477.5 16.5
			vertex 478.0 -427.5 16.5
			vertex 478.0 -477.5 16.5
		endloop
	endfacet
	facet normal 0.0 0.0 -1.0
		outer loop
			vertex 119.0 -477.5 16.5
			vertex 119.0 -427.5 16.5
			vertex 478.0 -427.5 16.5
		endloop
	endfacet
	facet normal 0.0 0.0 1.0
		outer loop
			vertex 119.0 -477.5 19.15
			vertex 478.0 -477.5 19.15
			vertex 478.0 -427.5 19.15
		endloop
	endfacet
	facet normal 0.0 0.0 1.0
		outer loop
			vertex 119.0 -477.5 19.15
			vertex 478.0 -427.5 19.15
			vertex 119.0 -427.5 19.15
		endloop
	endfacet
	facet normal 0.0 -1.0 0.0
		outer loop
			vertex 119.0 -477.5 16.5
			vertex 478.0 -477.5 16.5
			vertex 119.0 -477.5 19.15
		endloop
	endfacet
	facet normal 0.0 -1.0 0.0
		outer loop
			vertex 119.0 -477.5 19.15
			vertex 478.0 -477.5 16.5
			vertex 478.0 -477.5 19.15
		endloop
	endfacet
	facet normal 0.0 1.0 0.0
		outer loop
			vertex 119.0 -427.5 16.5
			vertex 119.0 -427.5 19.15
			vertex 478.0 -427.5 16.5
		endloop
	endfacet
	facet normal 0.0 1.0 0.0
		outer loop
			vertex 119.0 -427.5 19.15
			vertex 478.0 -427.5 19.15
			vertex 478.0 -427.5 16.5
		endloop
	endfacet
	facet normal -1.0 0.0 0.0
		outer loop
			vertex 119.0 -477.5 16.5
			vertex 119.0 -427.5 19.15
			vertex 119.0 -427.5 16.5
		endloop
	endfacet
	facet normal -1.0 0.0 0.0
		outer loop
			vertex 119.0 -477.5 16.5
			vertex 119.0 -477.5 19.15
			vertex 119.0 -427.5 19.15
		endloop
	endfacet
	facet normal 1.0 0.0 0.0
		outer loop
			vertex 478.0 -477.5 16.5
			vertex 478.0 -427.5 16.5
			vertex 478.0 -427.5 19.15
		endloop
	endfacet
	facet normal 1.0 0.0 0.0
		outer loop
			vertex 478.0 -477.5 16.5
			vertex 478.0 -427.5 19.15
			vertex 478.0 -477.5 19.15
		endloop
	endfacet
	facet normal 0.0 0.0 -1.0
		outer loop
			vertex -425.0 -169.0 16.5
			vertex -375.0 334.0 16.5
			vertex -375.0 -169.0 16.5
		endloop
	endfacet
	facet normal 0.0 0.0 -1.0
		outer loop
			vertex -425.0 -169.0 16.5
			vertex -425.0 334.0 16.5
			vertex -375.0 334.0 16.5
		endloop
	endfacet
	facet normal 0.0 0.0 1.0
		outer loop
			vertex -425.0 -169.0 19.15
			vertex -375.0 -169.0 19.15
			vertex -375.0 334.0 19.15
		endloop
	endfacet
	facet normal 0.0 0.0 1.0
		outer loop
			vertex -425.0 -169.0 19.15
			vertex -375.0 334.0 19.15
			vertex -425.0 334.0 19.15
		endloop
	endfacet
	facet normal 0.0 -1.0 0.0
		outer loop
			vertex -425.0 -169.0 16.5
			vertex -375.0 -169.0 16.5
			vertex -425.0 -169.0 19.15
		endloop
	endfacet
	facet normal 0.0 -1.0 0.0
		outer loop
			vertex -425.0 -169.0 19.15
			vertex -375.0 -169.0 16.5
			vertex -375.0 -169.0 19.15
		endloop
	endfacet
	facet normal 0.0 1.0 0.0
		outer loop
			vertex -425.0 334.0 16.5
			vertex -425.0 334.0 19.15
			vertex -375.0 334.0 16.5
		endloop
	endfacet
	facet normal 0.0 1.0 0.0
		outer loop
			vertex -425.0 334.0 19.15
			vertex -375.0 334.0 19.15
			vertex -375.0 334.0 16.5
		endloop
	endfacet
	facet normal -1.0 0.0 0.0
		outer loop
			vertex -425.0 -169.0 16.5
			vertex -425.0 334.0 19.15
			vertex -425.0 334.0 16.5
		endloop
	endfacet
	facet normal -1.0 0.0 0.0
		outer loop
			vertex -425.0 -169.0 16.5
			vertex -425.0 -169.0 19.15
			vertex -425.0 334.0 19.15
		endloop
	endfacet
	facet normal 1.0 0.0 0.0
		outer loop
			vertex -375.0 -169.0 16.5
			vertex -375.0 334.0 16.5
			vertex -375.0 334.0 19.15
		endloop
	endfacet
	facet normal 1.0 0.0 0.0
		outer loop
			vertex -375.0 -169.0 16.5
			vertex -375.0 334.0 19.15
			vertex -375.0 -169.0 19.15
		endloop
	endfacet
	facet normal 0.0 0.0 -1.0
		outer loop
			vertex -478.0 -169.0 16.5
			vertex -428.0 334.0 16.5
			vertex -428.0 -169.0 16.5
		endloop
	endfacet
	facet normal 0.0 0.0 -1.0
		outer loop
			vertex -478.0 -169.0 16.5
			vertex -478.0 334.0 16.5
			vertex -428.0 334.0 16.5
		endloop
	endfacet
	facet normal 0.0 0.0 1.0
		outer loop
			vertex -478.0 -169.0 19.15
			vertex -428.0 -169.0 19.15
			vertex -428.0 334.0 19.15
		endloop
	endfacet
	facet normal 0.0 0.0 1.0
		outer loop
			vertex -478.0 -169.0 19.15
			vertex -428.0 334.0 19.15
			vertex -478.0 334.0 19.15
		endloop
	endfacet
	facet normal 0.0 -1.0 0.0
		outer loop
			vertex -478.0 -169.0 16.5
			vertex -428.0 -169.0 16.5
			vertex -478.0 -169.0 19.15
		endloop
	endfacet
	facet normal 0.0 -1.0 0.0
		outer loop
			vertex -478.0 -169.0 19.15
			vertex -428.0 -169.0 16.5
			vertex -428.0 -169.0 19.15
		endloop
	endfacet
	facet normal 0.0 1.0 0.0
		outer loop
			vertex -478.0 334.0 16.5
			vertex -478.0 334.0 19.15
			vertex -428.0 334.0 16.5
		endloop
	endfacet
	facet normal 0.0 1.0 0.0
		outer loop
			vertex -478.0 334.0 19.15
			vertex -428.0 334.0 19.15
			vertex -428.0 334.0 16.5
		endloop
	endfacet
	facet normal -1.0 0.0 0.0
		outer loop
			vertex -478.0 -169.0 16.5
			vertex -478.0 334.0 19.15
			vertex -478.0 334.0 16.5
		endloop
	endfacet
	facet normal -1.0 0.0 0.0
		outer loop
			vertex -478.0 -169.0 16.5
			vertex -478.0 -169.0 19.15
			vertex -478.0 334.0 19.15
		endloop
	endfacet
	facet normal 1.0 0.0 0.0
		outer loop
			vertex -428.0 -169.0 16.5
			vertex -428.0 334.0 16.5
			vertex -428.0 334.0 19.15
		endloop
	endfacet
	facet normal 1.0 0.0 0.0
		outer loop
			vertex -428.0 -169.0 16.5
			vertex -428.0 334.0 19.15
			vertex -428.0 -169.0 19.15
		endloop
	endfacet
	facet normal 0.0 0.0 -1.0
		outer loop
			vertex -453.0 -477.5 16.5
			vertex -284.0 -427.5 16.5
			vertex -284.0 -477.5 16.5
		endloop
	endfacet
	facet normal 0.0 0.0 -1.0
		outer loop
			vertex -453.0 -477.5 16.5
			vertex -453.0 -427.5 16.5
			vertex -284.0 -427.5 16.5
		endloop
	endfacet
	facet normal 0.0 0.0 1.0
		outer loop
			vertex -453.0 -477.5 19.15
			vertex -284.0 -477.5 19.15
			vertex -284.0 -427.5 19.15
		endloop
	endfacet
	facet normal 0.0 0.0 1.0
		outer loop
			vertex -453.0 -477.5 19.15
			vertex -284.0 -427.5 19.15
			vertex -453.0 -427.5 19.15
		endloop
	endfacet
	facet normal 0.0 -1.0 0.0
		outer loop
			vertex -453.0 -477.5 16.5
			vertex -284.0 -477.5 16.5
			vertex -453.0 -477.5 19.15
		endloop
	endfacet
	facet normal 0.0 -1.0 0.0
		outer loop
			vertex -453.0 -477.5 19.15
			vertex -284.0 -477.5 16.5
			vertex -284.0 -477.5 19.15
		endloop
	endfacet
	facet normal 0.0 1.0 0.0
		outer loop
			vertex -453.0 -427.5 16.5
			vertex -453.0 -427.5 19.15
			vertex -284.0 -427.5 16.5
		endloop
	endfacet
	facet normal 0.0 1.0 0.0
		outer loop
			vertex -453.0 -427.5 19.15
			vertex -284.0 -427.5 19.15
			vertex -284.0 -427.5 16.5
		endloop
	endfacet
	facet normal -1.0 0.0 0.0
		outer loop
			vertex -453.0 -477.5 16.5
			vertex -453.0 -427.5 19.15
			vertex -453.0 -427.5 16.5
		endloop
	endfacet
	facet normal -1.0 0.0 0.0
		outer loop
			vertex -453.0 -477.5 16.5
			vertex -453.0 -477.5 19.15
			vertex -453.0 -427.5 19.15
		endloop
	endfacet
	facet normal 1.0 0.0 0.0
		outer loop
			vertex -284.0 -477.5 16.5
			vertex -284.0 -427.5 16.5
			vertex -284.0 -427.5 19.15
		endloop
	endfacet
	facet normal 1.0 0.0 0.0
		outer loop
			vertex -284.0 -477.5 16.5
			vertex -284.0 -427.5 19.15
			vertex -284.0 -477.5 19.15
		endloop
	endfacet
	facet normal 0.0 0.0 -1.0
		outer loop
			vertex -478.0 -477.5 16.5
			vertex -428.0 -119.0 16.5
			vertex -428.0 -477.5 16.5
		endloop
	endfacet
	facet normal 0.0 0.0 -1.0
		outer loop
			vertex -478.0 -477.5 16.5
			vertex -478.0 -119.0 16.5
			vertex -428.0 -119.0 16.5
		endloop
	endfacet
	facet normal 0.0 0.0 1.0
		outer loop
			vertex -478.0 -477.5 19.15
			vertex -428.0 -477.5 19.15
			vertex -428.0 -119.0 19.15
		endloop
	endfacet
	facet normal 0.0 0.0 1.0
		outer loop
			vertex -478.0 -477.5 19.15
			vertex -428.0 -119.0 19.15
			vertex -478.0 -119.0 19.15
		endloop
	endfacet
	facet normal 0.0 -1.0 0.0
		outer loop
			vertex -478.0 -477.5 16.5
			vertex -428.0 -477.5 16.5
			vertex -478.0 -477.5 19.15
		endloop
	endfacet
	facet normal 0.0 -1.0 0.0
		outer loop
			vertex -478.0 -477.5 19.15
			vertex -428.0 -477.5 16.5
			vertex -428.0 -477.5 19.15
		endloop
	endfacet
	facet normal 0.0 1.0 0.0
		outer loop
			vertex -478.0 -119.0 16.5
			vertex -478.0 -119.0 19.15
			vertex -428.0 -119.0 16.5
		endloop
	endfacet
	facet normal 0.0 1.0 0.0
		outer loop
			vertex -478.0 -119.0 19.15
			vertex -428.0 -119.0 19.15
			vertex -428.0 -119.0 16.5
		endloop
	endfacet
	facet normal -1.0 0.0 0.0
		outer loop
			vertex -478.0 -477.5 16.5
			vertex -478.0 -119.0 19.15
			vertex -478.0 -119.0 16.5
		endloop
	endfacet
	facet normal -1.0 0.0 0.0
		outer loop
			vertex -478.0 -477.5 16.5
			vertex -478.0 -477.5 19.15
			vertex -478.0 -119.0 19.15
		endloop
	endfacet
	facet normal 1.0 0.0 0.0
		outer loop
			vertex -428.0 -477.5 16.5
			vertex -428.0 -119.0 16.5
			vertex -428.0 -119.0 19.15
		endloop
	endfacet
	facet normal 1.0 0.0 0.0
		outer loop
			vertex -428.0 -477.5 16.5
			vertex -428.0 -119.0 19.15
			vertex -428.0 -477.5 19.15
		endloop
	endfacet
	facet normal 0.0 0.0 -1.0
		outer loop
			vertex -400.0 -424.5 16.5
			vertex -284.0 -374.5 16.5
			vertex -284.0 -424.5 16.5
		endloop
	endfacet
	facet normal 0.0 0.0 -1.0
		outer loop
			vertex -400.0 -424.5 16.5
			vertex -400.0 -374.5 16.5
			vertex -284.0 -374.5 16.5
		endloop
	endfacet
	facet normal 0.0 0.0 1.0
		outer loop
			vertex -400.0 -424.5 19.15
			vertex -284.0 -424.5 19.15
			vertex -284.0 -374.5 19.15
		endloop
	endfacet
	facet normal 0.0 0.0 1.0
		outer loop
			vertex -400.0 -424.5 19.15
			vertex -284.0 -374.5 19.15
			vertex -400.0 -374.5 19.15
		endloop
	endfacet
	facet normal 0.0 -1.0 0.0
		outer loop
			vertex -400.0 -424.5 16.5
			vertex -284.0 -424.5 16.5
			vertex -400.0 -424.5 19.15
		endloop
	endfacet
	facet normal 0.0 -1.0 0.0
		outer loop
			vertex -400.0 -424.5 19.15
			vertex -284.0 -424.5 16.5
			vertex -284.0 -424.5 19.15
		endloop
	endfacet
	facet normal 0.0 1.0 0.0
		outer loop
			vertex -400.0 -374.5 16.5
			vertex -400.0 -374.5 19.15
			vertex -284.0 -374.5 16.5
		endloop
	endfacet
	facet normal 0.0 1.0 0.0
		outer loop
			vertex -400.0 -374.5 19.15
			vertex -284.0 -374.5 19.15
			vertex -284.0 -374.5 16.5
		endloop
	endfacet
	facet normal -1.0 0.0 0.0
		outer loop
			vertex -400.0 -424.5 16.5
			vertex -400.0 -374.5 19.15
			vertex -400.0 -374.5 16.5
		endloop
	endfacet
	facet normal -1.0 0.0 0.0
		outer loop
			vertex -400.0 -424.5 16.5
			vertex -400.0 -424.5 19.15
			vertex -400.0 -374.5 19.15
		endloop
	endfacet
	facet normal 1.0 0.0 0.0
		outer loop
			vertex -284.0 -424.5 16.5
			vertex -284.0 -374.5 16.5
			vertex -284.0 -374.5 19.15
		endloop
	endfacet
	facet normal 1.0 0.0 0.0
		outer loop
			vertex -284.0 -424.5 16.5
			vertex -284.0 -374.5 19.15
			vertex -284.0 -424.5 19.15
		endloop
	endfacet
	facet normal 0.0 0.0 -1.0
		outer loop
			vertex -425.0 -424.5 16.5
			vertex -375.0 -119.0 16.5
			vertex -375.0 -424.5 16.5
		endloop
	endfacet
	facet normal 0.0 0.0 -1.0
		outer loop
			vertex -425.0 -424.5 16.5
			vertex -425.0 -119.0 16.5
			vertex -375.0 -119.0 16.5
		endloop
	endfacet
	facet normal 0.0 0.0 1.0
		outer loop
			vertex -425.0 -424.5 19.15
			vertex -375.0 -424.5 19.15
			vertex -375.0 -119.0 19.15
		endloop
	endfacet
	facet normal 0.0 0.0 1.0
		outer loop
			vertex -425.0 -424.5 19.15
			vertex -375.0 -119.0 19.15
			vertex -425.0 -119.0 19.15
		endloop
	endfacet
	facet normal 0.0 -1.0 0.0
		outer loop
			vertex -425.0 -424.5 16.5
			vertex -375.0 -424.5 16.5
			vertex -425.0 -424.5 19.15
		endloop
	endfacet
	facet normal 0.0 -1.0 0.0
		outer loop
			vertex -425.0 -424.5 19.15
			vertex -375.0 -424.5 16.5
			vertex -375.0 -424.5 19.15
		endloop
	endfacet
	facet normal 0.0 1.0 0.0
		outer loop
			vertex -425.0 -119.0 16.5
			vertex -425.0 -119.0 19.15
			vertex -375.0 -119.0 16.5
		endloop
	endfacet
	facet normal 0.0 1.0 0.0
		outer loop
			vertex -425.0 -119.0 19.15
			vertex -375.0 -119.0 19.15
			vertex -375.0 -119.0 16.5
		endloop
	endfacet
	facet normal -1.0 0.0 0.0
		outer loop
			vertex -425.0 -424.5 16.5
			vertex -425.0 -119.0 19.15
			vertex -425.0 -119.0 16.5
		endloop
	endfacet
	facet normal -1.0 0.0 0.0
		outer loop
			vertex -425.0 -424.5 16.5
			vertex -425.0 -424.5 19.15
			vertex -425.0 -119.0 19.15
		endloop
	endfacet
	facet normal 1.0 0.0 0.0
		outer loop
			vertex -375.0 -424.5 16.5
			vertex -375.0 -119.0 16.5
			vertex -375.0 -119.0 19.15
		endloop
	endfacet
	facet normal 1.0 0.0 0.0
		outer loop
			vertex -375.0 -424.5 16.5
			vertex -375.0 -119.0 19.15
			vertex -375.0 -424.5 19.15
		endloop
	endfacet
	facet normal 0.0 0.0 -1.0
		outer loop
			vertex -425.0 284.0 16.5
			vertex -375.0 398.0 16.5
			vertex -375.0 284.0 16.5
		endloop
	endfacet
	facet normal 0.0 0.0 -1.0
		outer loop
			vertex -425.0 284.0 16.5
			vertex -425.0 398.0 16.5
			vertex -375.0 398.0 16.5
		endloop
	endfacet
	facet normal 0.0 0.0 1.0
		outer loop
			vertex -425.0 284.0 19.15
			vertex -375.0 284.0 19.15
			vertex -375.0 398.0 19.15
		endloop
	endfacet
	facet normal 0.0 0.0 1.0
		outer loop
			vertex -425.0 284.0 19.15
			vertex -375.0 398.0 19.15
			vertex -425.0 398.0 19.15
		endloop
	endfacet
	facet normal 0.0 -1.0 0.0
		outer loop
			vertex -425.0 284.0 16.5
			vertex -375.0 284.0 16.5
			vertex -425.0 284.0 19.15
		endloop
	endfacet
	facet normal 0.0 -1.0 0.0
		outer loop
			vertex -425.0 284.0 19.15
			vertex -375.0 284.0 16.5
			vertex -375.0 284.0 19.15
		endloop
	endfacet
	facet normal 0.0 1.0 0.0
		outer loop
			vertex -425.0 398.0 16.5
			vertex -425.0 398.0 19.15
			vertex -375.0 398.0 16.5
		endloop
	endfacet
	facet normal 0.0 1.0 0.0
		outer loop
			vertex -425.0 398.0 19.15
			vertex -375.0 398.0 19.15
			vertex -375.0 398.0 16.5
		endloop
	endfacet
	facet normal -1.0 0.0 0.0
		outer loop
			vertex -425.0 284.0 16.5
			vertex -425.0 398.0 19.15
			vertex -425.0 398.0 16.5
		endloop
	endfacet
	facet normal -1.0 0.0 0.0
		outer loop
			vertex -425.0 284.0 16.5
			vertex -425.0 284.0 19.15
			vertex -425.0 398.0 19.15
		endloop
	endfacet
	facet normal 1.0 0.0 0.0
		outer loop
			vertex -375.0 284.0 16.5
			vertex -375.0 398.0 16.5
			vertex -375.0 398.0 19.15
		endloop
	endfacet
	facet normal 1.0 0.0 0.0
		outer loop
			vertex -375.0 284.0 16.5
			vertex -375.0 398.0 19.15
			vertex -375.0 284.0 19.15
		endloop
	endfacet
	facet normal 0.0 0.0 -1.0
		outer loop
			vertex -425.0 373.0 16.5
			vertex -119.0 423.0 16.5
			vertex -119.0 373.0 16.5
		endloop
	endfacet
	facet normal 0.0 0.0 -1.0
		outer loop
			vertex -425.0 373.0 16.5
			vertex -425.0 423.0 16.5
			vertex -119.0 423.0 16.5
		endloop
	endfacet
	facet normal 0.0 0.0 1.0
		outer loop
			vertex -425.0 373.0 19.15
			vertex -119.0 373.0 19.15
			vertex -119.0 423.0 19.15
		endloop
	endfacet
	facet normal 0.0 0.0 1.0
		outer loop
			vertex -425.0 373.0 19.15
			vertex -119.0 423.0 19.15
			vertex -425.0 423.0 19.15
		endloop
	endfacet
	facet normal 0.0 -1.0 0.0
		outer loop
			vertex -425.0 373.0 16.5
			vertex -119.0 373.0 16.5
			vertex -425.0 373.0 19.15
		endloop
	endfacet
	facet normal 0.0 -1.0 0.0
		outer loop
			vertex -425.0 373.0 19.15
			vertex -119.0 373.0 16.5
			vertex -119.0 373.0 19.15
		endloop
	endfacet
	facet normal 0.0 1.0 0.0
		outer loop
			vertex -425.0 423.0 16.5
			vertex -425.0 423.0 19.15
			vertex -119.0 423.0 16.5
		endloop
	endfacet
	facet normal 0.0 1.0 0.0
		outer loop
			vertex -425.0 423.0 19.15
			vertex -119.0 423.0 19.15
			vertex -119.0 423.0 16.5
		endloop
	endfacet
	facet normal -1.0 0.0 0.0
		outer loop
			vertex -425.0 373.0 16.5
			vertex -425.0 423.0 19.15
			vertex -425.0 423.0 16.5
		endloop
	endfacet
	facet normal -1.0 0.0 0.0
		outer loop
			vertex -425.0 373.0 16.5
			vertex -425.0 373.0 19.15
			vertex -425.0 423.0 19.15
		endloop
	endfacet
	facet normal 1.0 0.0 0.0
		outer loop
			vertex -119.0 373.0 16.5
			vertex -119.0 423.0 16.5
			vertex -119.0 423.0 19.15
		endloop
	endfacet
	facet normal 1.0 0.0 0.0
		outer loop
			vertex -119.0 373.0 16.5
			vertex -119.0 423.0 19.15
			vertex -119.0 373.0 19.15
		endloop
	endfacet
	facet normal 0.0 0.0 -1.0
		outer loop
			vertex -478.0 284.0 16.5
			vertex -428.0 451.0 16.5
			vertex -428.0 284.0 16.5
		endloop
	endfacet
	facet normal 0.0 0.0 -1.0
		outer loop
			vertex -478.0 284.0 16.5
			vertex -478.0 451.0 16.5
			vertex -428.0 451.0 16.5
		endloop
	endfacet
	facet normal 0.0 0.0 1.0
		outer loop
			vertex -478.0 284.0 19.15
			vertex -428.0 284.0 19.15
			vertex -428.0 451.0 19.15
		endloop
	endfacet
	facet normal 0.0 0.0 1.0
		outer loop
			vertex -478.0 284.0 19.15
			vertex -428.0 451.0 19.15
			vertex -478.0 451.0 19.15
		endloop
	endfacet
	facet normal 0.0 -1.0 0.0
		outer loop
			vertex -478.0 284.0 16.5
			vertex -428.0 284.0 16.5
			vertex -478.0 284.0 19.15
		endloop
	endfacet
	facet normal 0.0 -1.0 0.0
		outer loop
			vertex -478.0 284.0 19.15
			vertex -428.0 284.0 16.5
			vertex -428.0 284.0 19.15
		endloop
	endfacet
	facet normal 0.0 1.0 0.0
		outer loop
			vertex -478.0 451.0 16.5
			vertex -478.0 451.0 19.15
			vertex -428.0 451.0 16.5
		endloop
	endfacet
	facet normal 0.0 1.0 0.0
		outer loop
			vertex -478.0 451.0 19.15
			vertex -428.0 451.0 19.15
			vertex -428.0 451.0 16.5
		endloop
	endfacet
	facet normal -1.0 0.0 0.0
		outer loop
			vertex -478.0 284.0 16.5
			vertex -478.0 451.0 19.15
			vertex -478.0 451.0 16.5
		endloop
	endfacet
	facet normal -1.0 0.0 0.0
		outer loop
			vertex -478.0 284.0 16.5
			vertex -478.0 284.0 19.15
			vertex -478.0 451.0 19.15
		endloop
	endfacet
	facet normal 1.0 0.0 0.0
		outer loop
			vertex -428.0 284.0 16.5
			vertex -428.0 451.0 16.5
			vertex -428.0 451.0 19.15
		endloop
	endfacet
	facet normal 1.0 0.0 0.0
		outer loop
			vertex -428.0 284.0 16.5
			vertex -428.0 451.0 19.15
			vertex -428.0 284.0 19.15
		endloop
	endfacet
	facet normal 0.0 0.0 -1.0
		outer loop
			vertex -478.0 426.0 16.5
			vertex -119.0 476.0 16.5
			vertex -119.0 426.0 16.5
		endloop
	endfacet
	facet normal 0.0 0.0 -1.0
		outer loop
			vertex -478.0 426.0 16.5
			vertex -478.0 476.0 16.5
			vertex -119.0 476.0 16.5
		endloop
	endfacet
	facet normal 0.0 0.0 1.0
		outer loop
			vertex -478.0 426.0 19.15
			vertex -119.0 426.0 19.15
			vertex -119.0 476.0 19.15
		endloop
	endfacet
	facet normal 0.0 0.0 1.0
		outer loop
			vertex -478.0 426.0 19.15
			vertex -119.0 476.0 19.15
			vertex -478.0 476.0 19.15
		endloop
	endfacet
	facet normal 0.0 -1.0 0.0
		outer loop
			vertex -478.0 426.0 16.5
			vertex -119.0 426.0 16.5
			vertex -478.0 426.0 19.15
		endloop
	endfacet
	facet normal 0.0 -1.0 0.0
		outer loop
			vertex -478.0 426.0 19.15
			vertex -119.0 426.0 16.5
			vertex -119.0 426.0 19.15
		endloop
	endfacet
	facet normal 0.0 1.0 0.0
		outer loop
			vertex -478.0 476.0 16.5
			vertex -478.0 476.0 19.15
			vertex -119.0 476.0 16.5
		endloop
	endfacet
	facet normal 0.0 1.0 0.0
		outer loop
			vertex -478.0 476.0 19.15
			vertex -119.0 476.0 19.15
			vertex -119.0 476.0 16.5
		endloop
	endfacet
	facet normal -1.0 0.0 0.0
		outer loop
			vertex -478.0 426.0 16.5
			vertex -478.0 476.0 19.15
			vertex -478.0 476.0 16.5
		endloop
	endfacet
	facet normal -1.0 0.0 0.0
		outer loop
			vertex -478.0 426.0 16.5
			vertex -478.0 426.0 19.15
			vertex -478.0 476.0 19.15
		endloop
	endfacet
	facet normal 1.0 0.0 0.0
		outer loop
			vertex -119.0 426.0 16.5
			vertex -119.0 476.0 16.5
			vertex -119.0 476.0 19.15
		endloop
	endfacet
	facet normal 1.0 0.0 0.0
		outer loop
			vertex -119.0 426.0 16.5
			vertex -119.0 476.0 19.15
			vertex -119.0 426.0 19.15
		endloop
	endfacet
endsolid
